<svg xmlns="http://www.w3.org/2000/svg" viewBox="0 0 553 858"><defs><style>.cls-1{isolation:isolate;}.cls-2{fill:#fff;opacity:0.6;}.cls-3{fill:#e3ecef;opacity:0.2;}.cls-4{fill:#c5c9cb;}.cls-15,.cls-17,.cls-5{fill:#634e42;mix-blend-mode:multiply;}.cls-5{opacity:0.06;}.cls-6{fill:#dfded8;}.cls-7{fill:#d8a968;}.cls-8{fill:#e6c278;}.cls-9{fill:#c99252;opacity:0.48;}.cls-10{fill:#be8d54;opacity:0.4;}.cls-11{fill:#c18057;}.cls-12{fill:#3f2615;}.cls-13{fill:#a78058;}.cls-14{fill:#ddbfa0;}.cls-15{opacity:0.1;}.cls-16{fill:#f4dfb1;}.cls-17{opacity:0.05;}.cls-18{fill:#ffefdb;}.cls-19{fill:#ece1c8;}.cls-20{fill:#d0a97f;}.cls-21{fill:#c6965f;}</style></defs><title>sundae</title><g class="cls-1"><g id="Layer_1" data-name="Layer 1"><path class="cls-2" d="M254.1 747.2c-13.31 0-113.4 6-139.4 33.51s-6 49.65 39.83 63.07 122.37 21.15 183.38 3.53 72.42-31.8 70.79-50.27-58.12-49.84-154.6-49.84z"/><ellipse class="cls-3" cx="256.02" cy="799.03" rx="121.83" ry="42.28"/><path class="cls-4" d="M287.64 580.43C283.4 617 280.53 756 283.22 770.76c1.15 6.3 62.55 33.16-28.5 34.45-80.17 1.13-28.36-26-26.24-36.31s6-143.94 2.73-178.81"/><path class="cls-5" d="M175.47 550.62C174 549.12 96.07 518 84.67 513s-36.12-25.7-44.88-35.53-22.51-27.5-28.64-39S-9 384.29 8.74 357.14c-1.52-.31-25.07 19.25 18.31 85.78 16.39 25.15 42.43 47.08 51.13 51.7s82.26 30.63 84.35 30.85 12.94 25.15 12.94 25.15z"/><path class="cls-4" d="M300.19 531.48c-12.27 2.53-12.55 49-12.55 49l-56.43 9.65c-1.2-16.47-1.71-55.25-14.57-55.39 17.54-1.74 96.74-5.97 83.55-3.26z"/><path class="cls-6" d="M256.17 282.93c31.8-.63 134.28-2.31 195.38 9.81s97.34 27.26 100.08 57.47c2.59 28.54-12.25 67.88-23.75 83-12.54 16.45-71.6 67.51-148.57 83.71S244 541.36 191.69 531.44 87.05 500.83 72.56 491.6c-17.44-11.11-64.73-65.4-70.2-89.1-5.12-22.19-2.8-58 35.35-71.51s133.89-46.39 218.46-48.06z"/><path class="cls-7" d="M379.88 225.72c8.54-6.87 51.05-37.48 65.28-51 16.59-15.81 50.73-44 57.77-48.06-.21-9.5-7.17-40.79-26.55-52.45-34.32-20.64-50.64-11.09-61.3-9.52 0 0-4.3-15-9.8-22.19s-23.1-19.75-33.45-21.85c-14.1-2.86-31.16-4.36-44 .67L302 157.91z"/><path class="cls-8" d="M480.79 117.36c-.55-1-.32-2.31 1.47-3 1.31-.51 3.19-1.17 4.63-1.61a.62.62 0 0 0 .43-.71c-.18-.92-.38-1.87-.6-2.85a.63.63 0 0 0-.89-.42c-.86.43-2 1-3.11 1.51a10.45 10.45 0 0 1-4.53 1c-.94-.15-1.17-2.42-1.57-3.44a34.72 34.72 0 0 0-1.51-3.47c-.53-1-1-2.49-.43-2.78s5.05-2.35 6.48-2.84c.49-.17 1-.35 1.37-.48a.63.63 0 0 0 .4-.85c-.49-1.13-1-2.27-1.6-3.38a.63.63 0 0 0-.8-.29c-.33.14-.75.3-1.27.55-1.75.82-1.86.71-4.17 1.6s-1.48-.17-3 .33-2.89-5.22-3.43-6.63-.43-2.26.39-2.8a23 23 0 0 1 4.72-1.93.64.64 0 0 0 .26-1.05q-1-1-2.13-2a.63.63 0 0 0-.7-.09 11 11 0 0 1-1.4.62c-1.37.46-2.24.88-3.24-1.31-.55-1.19-1-2.49-1.45-3.6a.61.61 0 0 0-.3-.33l-.79-.38a45.64 45.64 0 0 0-11.31-3.43h-.39a40.78 40.78 0 0 1-5 2.11c-1.14.3-1.38-2.19-1.58-2.7l-.09-.23c-1.64-.08-3.27-.11-4.88-.08a.63.63 0 0 0-.57.87c.55 1.34 1.3 3 1.1 3.54-.48 1.22-2.41 1.39-3.86 1.81s-5.42 2.63-6.21.52c-.68-1.81-1.62-4-2.11-5.21a.63.63 0 0 0-.68-.38q-1.89.31-3.68.67a.63.63 0 0 0-.41 1 38.48 38.48 0 0 1 2.14 5.62c.55 1.41.44 2.26-.38 2.8a27.62 27.62 0 0 1-6.02 2.36c-3.11.92-2.19.84-3.34-1a18.19 18.19 0 0 1-1.75-3.68c-.73-1.85-1.21-2.33-1.3-3.32v-.07a.64.64 0 0 0-.83-.57c-2.12.67-3.69 1.25-4.55 1.58a.63.63 0 0 1-.85-.52c-.08-.68-.21-1.75-.39-3.09a.63.63 0 0 0-.86-.5c-.65.27-1.74.72-3.38 1.45a42.51 42.51 0 0 1-5.13 2.16c-1.14.3-1.38-2.19-1.58-2.7s-1.24-3.35-1.71-4.35-1.41-2.47-1-2.93 2.11-.83 4.33-1.55 5.09-1.7 5.62-1.47 1.4 3 1.95 4.4c.18.45.35.2.55.14a.48.48 0 0 0 .31-.54c-1.28-7.94-3.63-18.05-8.19-21.58-.59-.45-1.25-1-2-1.63a1 1 0 0 1-.06.62c-.49.7-2.44.37-4.93 2.13a.64.64 0 0 1-.19.09c-3.19.91-4.89 2.11-5.54.71-.49-1.06-.63-3.66-1.29-5.17-.59-1.33-2.53-3.79 1.17-5.48a.63.63 0 0 0 .09-1.11q-1.41-.91-3-1.8a.65.65 0 0 0-.53 0l-.58.18c-.61.16-1-.48-1.19-1.19a.62.62 0 0 0-.31-.36c-1.52-.79-3.14-1.54-4.86-2.25a.63.63 0 0 0-.83.83c.17.4.33.76.46 1 .76 1.55 1.09 3.71-.33 4.41s-2.93 2.11-5.26 2.58-3.81.24-4.24-.47a48.4 48.4 0 0 1-2.29-5.45c-.69-1.94-.56-3.69 1.79-4.47.34-.11.7-.25 1.08-.4a.63.63 0 0 0-.08-1.2 68.68 68.68 0 0 0-9.42-1.54.63.63 0 0 0-.68.53v.28c-.2 1 .84.92-2 2.33s-6.38 2.73-7.23 1.88-1.24-3.05-1.76-4.74a.63.63 0 0 0-.64-.44q-2.06.13-4.21.37a.63.63 0 0 0-.5.9 24.75 24.75 0 0 1 1.65 4.29c.46 1.74 1.27 2.67-.41 3.48-1.45.7-.91.28-4 1.54a.62.62 0 0 0-.38.47l-.53 3a.63.63 0 0 0 .88.69c.35-.15.71-.3 1.1-.43 1.3-.46 3.48-.75 4.26-1.37s.89-.36 2.34 2.46 2.81 6.34 2 7.2-4.06 1.51-5.65 2.16-3.16 1.52-4.16-.75a24.69 24.69 0 0 1-.9-2.34.63.63 0 0 0-1.22.09c-.64 3.54-2 4.82-1.48 9.16.06 0-.34 1.45-.26 1.49a5.46 5.46 0 0 1 3.33 3.41c1.7 5.09 1.66 5.92.81 6.76s-1.68.81-4.87 2.06a9.1 9.1 0 0 1-1.44.45.64.64 0 0 0-.5.5c-.62 3.15-1.08 5.31-1.41 6.59-.19.74-.54 2.35-1 4.15a.66.66 0 0 0 0 .42c1 2.19 2.15 5 1.75 5.55s-1.55.48-3.17 1.15a.61.61 0 0 0-.36.43l-.7 3.08a.63.63 0 0 0 .85.73L326 95c2.3-.9 2.29.06 3.77-.45s2.93 5.2 3.48 6.6.44 2.26-.38 2.8-2.23.25-5.33 1.17-2.93 2.05-4.08.24l-.31-.51a.63.63 0 0 0-1.16.19l-1.84 8.18a.62.62 0 0 0 .35.72c.31.12.62.48 1.07 1.35a27.14 27.14 0 0 1 2.17 5.35c.46 1.74 1.27 2.67-.41 3.48s-.69.12-5.75 2.26l-.41.15-3.17 14.4a.62.62 0 0 0 0 .32 2 2 0 0 1-.46 2.35.69.69 0 0 0-.24.38l-.87 3.91a.63.63 0 0 0 .85.71l.45-.19c1.65-.69 3.37-.44 4.52 2.5s1.49 4.36 1.5 5.32c0 .69.73 1.14-.06 1.78a.63.63 0 0 0 0 1l16.11 13.24a.63.63 0 0 0 .61.11c1.38-.5 2.16-.64 3.65-1.28s3-.87 3.37-.07a26 26 0 0 1 1.41 3.21c.44 1.3.7 3.49 1.31 4.28.35.46.41.69-.15 1.07a.63.63 0 0 0-.06 1l8.09 6.65a.63.63 0 0 0 1-.72l-.25-.63c-.73-1.85-1.21-2.33-1.3-3.32s.52-.94 2.26-1.77a26.59 26.59 0 0 1 3.35-1.53c2.3-.9 2.29.06 3.77-.45s2.93 5.2 3.48 6.6.44 2.26-.38 2.8-2.23.25-5.33 1.17a12.21 12.21 0 0 0-1.74.66.63.63 0 0 0-.13 1.06l4.07 3.35a.63.63 0 0 0 .65.09c2.07-.89 4.34-2 5.32-1.64.72.23 2.14 4.32 2.9 5.87a5.42 5.42 0 0 1 .6 3.06.62.62 0 0 0 .22.58l6.65 5.46a.63.63 0 0 0 1-.72 3.9 3.9 0 0 1-.44-1.9c.48-1.22 2.41-1.39 3.86-1.81s5.42-2.63 6.21-.52l.05.14a.63.63 0 0 0 1 .27l3.7-2.94c0-1-1.38-1.45 1.71-2.59 1.05-.39 2-.71 2.76-1a.6.6 0 0 0 .18-.1l8.7-6.94a.63.63 0 0 0-.43-1.13 1.52 1.52 0 0 1-1.18-.26c-.85-.85-1.45-4.08-2.08-5.68s-1.47-3.19.8-4.15 3-1 4.91-1.78c1.45-.63 3-.87 3.37-.07a26 26 0 0 1 1.41 3.21c.26.76.45 1.82.7 2.73.12.44.62-.52 1-.81 1.16-.92 2.34-.69 3.47-1.59a.62.62 0 0 0 .19-.72c-.66-1.66-1.19-3.26-1.6-4-.55-1-.32-2.31 1.47-3a56.48 56.48 0 0 1 6-2c1.35-.31 1.74-.09 2.31 1a7.29 7.29 0 0 1 .32.74.64.64 0 0 0 1 .27l3.18-2.54a.61.61 0 0 0 .22-.6c-.26-1.34.33-2.79 4-3.78l1.79-.47a.66.66 0 0 0 .25-.13l2.13-1.72 9.26-7.61a.52.52 0 0 0-.52-.89c-2.33.9-5.11 1.83-5.61 1.33-.85-.85-1.45-4.08-2.08-5.68s-1.47-3.19.8-4.15 3-1 4.91-1.78c1.45-.63 3-.87 3.37-.07a26 26 0 0 1 1.41 3.21c.44 1.3.7 3.49 1.31 4.28a.92.92 0 0 1 .26.57l3.87-3.19a.63.63 0 0 0 .22-.62 24.56 24.56 0 0 0-1-4.13c-.67-1.51-3.08-4.47 3-6.12s5.25-1.1 6.14.61c.2.39.49 1 .81 1.63a.63.63 0 0 0 1 .21l3.69-3.07-.13-.29c-.67-1.37-.29-2.87 1.15-3.12a9.34 9.34 0 0 0 3.66-1.2 6.87 6.87 0 0 1 1.73-.84 1 1 0 0 0 .23-.13c4.66-3.62 7.22-4.71 10-8.72-.4-1-1.38.72-2.07 1-1.37.46-2.24.88-3.24-1.31s-1.96-4.8-2.51-5.83zm-29.28 9.06c2-1 4.54-1.41 5.87-2.16s2.85-.45 3.18 1a9.34 9.34 0 0 0 1.44 3.54 11.07 11.07 0 0 1 1.47 3.19c.15.38.44 1.3-2.71 2.69a32 32 0 0 1-5.63 2.21c-.91.13-2.23-1-3-3.26s-2.66-6.2-.62-7.22zm-3.7-5.11c-.8-2.11-1.95-4.77-2.32-5.73a2.77 2.77 0 0 1 1.05-3.14c1-.55 4.55-1.56 5.89-2.09s3.52 2.75 4 4.06 1.75 3.93 1.5 4.58c-.48 1.22-2.41 1.39-3.86 1.81s-5.47 2.61-6.27.5zm-8.74 20.77a48.4 48.4 0 0 1-2.29-5.45c-.69-1.94-.56-3.69 1.79-4.47s6.09-2.91 7.44-2.48c.72.23 2.14 4.32 2.9 5.87s1.09 3.71-.33 4.41-2.93 2.11-5.26 2.58-3.83.25-4.26-.47zm3.63-16.33a27.61 27.61 0 0 1-6.07 2.38c-3.11.92-2.19.84-3.34-1a18.19 18.19 0 0 1-1.76-3.74c-.73-1.85-1.21-2.33-1.3-3.32s.52-.94 2.26-1.77 1.85-.73 4.16-1.63 1.48.16 3-.35 2.93 5.2 3.48 6.6.38 2.28-.44 2.82zm-16.23 26.92c.41-.46 2.11-.83 4.33-1.55s5.09-1.7 5.62-1.47 1.4 3 1.95 4.4 2.33 4.25 1.68 4.65c-.11.07-1.28.5-4.17 1.78a42.5 42.5 0 0 1-5.13 2.16c-1.14.3-1.38-2.19-1.58-2.7s-1.24-3.35-1.71-4.35-1.46-2.47-1-2.93zm-2.68-6.29c-.2-.51-1.24-3.35-1.71-4.35s-1.41-2.47-1-2.93 2.11-.83 4.33-1.55 5.09-1.7 5.62-1.47 1.4 3 1.95 4.4 2.33 4.25 1.68 4.65c-.11.07-1.28.5-4.17 1.78a42.51 42.51 0 0 1-5.13 2.16c-1.14.3-1.36-2.19-1.58-2.7zm5.2-15.32c-.49.7-2.45.37-4.93 2.13a.62.62 0 0 1-.18.09c-3.2.91-4.89 2.11-5.54.71-.49-1.06-.63-3.66-1.29-5.17s-3.08-4.47 3-6.12 5.25-1.1 6.14.61 3.36 6.93 2.81 7.74zm-15.3 26.26c2.35-.78 6.09-2.91 7.44-2.48.72.23 2.14 4.32 2.9 5.87s1.09 3.71-.33 4.41-2.93 2.11-5.26 2.58-3.81.24-4.24-.47a48.41 48.41 0 0 1-2.29-5.45c-.7-1.95-.58-3.7 1.77-4.47zm-5.3-6.37c-.75-2.29-2.65-6.19-.62-7.21s4.54-1.41 5.87-2.16 2.85-.45 3.18 1a9.34 9.34 0 0 0 1.41 3.58 11.07 11.07 0 0 1 1.47 3.19c.15.38.44 1.3-2.71 2.69a32 32 0 0 1-5.63 2.21c-.91.08-2.23-1.02-2.98-3.31zm-29 3.93a43.68 43.68 0 0 1 6-1.93c1-.18 1.34-.53 2.26 1.25a27.14 27.14 0 0 1 2.17 5.35c.46 1.74 1.27 2.67-.41 3.48s-.69.12-5.75 2.26c-1.65.69-3.37.44-4.52-2.5s-1.49-4.36-1.5-5.32-1.35-1.47 1.74-2.6zm-2.88-3c-.91.13-2.23-1-3-3.26s-2.65-6.19-.62-7.21 4.54-1.41 5.87-2.16 2.85-.45 3.18 1a9.34 9.34 0 0 0 1.41 3.58 11.07 11.07 0 0 1 1.47 3.19c.15.38.44 1.3-2.71 2.69a32 32 0 0 1-5.61 2.16zm-7.76-16c-1-2.26-1-3-1.85-4.88-.65-1.44-.91-3-.11-3.37a26 26 0 0 1 3.19-1.45c1.3-.46 3.48-.75 4.26-1.37s.89-.36 2.34 2.46 2.81 6.34 2 7.2-4.06 1.51-5.65 2.16-3.19 1.5-4.19-.77zm-6.11-15.18c-1.15-2.94-1.49-4.36-1.5-5.32s-1.38-1.45 1.71-2.59a43.68 43.68 0 0 1 6-1.93c1-.18 1.34-.53 2.26 1.25a27.15 27.15 0 0 1 2.17 5.35c.46 1.74 1.27 2.67-.41 3.48s-.69.12-5.75 2.26c-1.6.68-3.33.42-4.48-2.52zm-.28 20.75c-2.33.83-6 3-7.38 2.64-.72-.21-2.24-4.28-3-5.81s-1.17-3.68.24-4.42 2.89-2.18 5.2-2.7 3.81-.33 4.25.38a48.39 48.39 0 0 1 2.41 5.4c.7 1.91.61 3.66-1.72 4.49zm-14.52-16.59c-.44-1.3-1.75-3.93-1.5-4.58.48-1.22 2.41-1.39 3.86-1.81s5.42-2.63 6.21-.52 1.95 4.77 2.32 5.73a2.77 2.77 0 0 1-1.05 3.14c-1 .55-4.55 1.56-5.89 2.09s-3.52-2.77-3.96-4.07zm-5-11.83c-.84-1.59-.76-2.13-1.76-3.74s-1.26-2.83-1-3.3 1.42-.71 4.5-1.69 2.25-1.4 3.74-2.13 2.57 1.13 3.33 3.41c1.7 5.09 1.66 5.92.81 6.76s-1.68.81-4.87 2.06-3.87.2-4.71-1.4zm2.24 19c-.49.7-2.45.37-4.93 2.13a.62.62 0 0 1-.18.09c-3.2.91-4.89 2.11-5.54.71-.49-1.06-.63-3.66-1.29-5.17s-3.08-4.47 3-6.12 5.25-1.1 6.14.61 3.4 6.97 2.84 7.78zm-9.69-35.89c-.79-1.53-1.17-3.68.24-4.42s2.89-2.18 5.2-2.7 3.81-.33 4.25.38a48.4 48.4 0 0 1 2.41 5.4c.73 1.93.65 3.68-1.69 4.5s-6 3-7.38 2.64c-.69-.18-2.21-4.24-3-5.77zm10.91-25.49a43.69 43.69 0 0 1 6-1.93c1-.18 1.34-.53 2.26 1.25a27.15 27.15 0 0 1 2.17 5.35c.46 1.74 1.27 2.67-.41 3.48s-.69.12-5.75 2.26c-1.65.69-3.37.44-4.52-2.5s-1.49-4.36-1.5-5.32-1.31-1.42 1.78-2.56zm11.38 12c.79-.62.89-.36 2.34 2.46s2.81 6.34 2 7.2-4.06 1.51-5.65 2.16-3.16 1.52-4.16-.75-1-3-1.85-4.88c-.65-1.44-.91-3-.11-3.37a26 26 0 0 1 3.19-1.45c1.31-.41 3.49-.71 4.27-1.33zm7.72 15.42a9.34 9.34 0 0 0 1.41 3.58 11.07 11.07 0 0 1 1.47 3.19c.15.38.44 1.3-2.71 2.69a32 32 0 0 1-5.63 2.21c-.91.13-2.23-1-3-3.26s-2.65-6.19-.62-7.21 4.54-1.41 5.87-2.16 2.91-.42 3.25 1zm1-19c2.35-.78 6.09-2.91 7.44-2.48.72.23 2.14 4.32 2.9 5.87s1.09 3.71-.33 4.41-2.93 2.11-5.26 2.58-3.81.24-4.24-.47a48.41 48.41 0 0 1-2.29-5.45c-.62-1.9-.52-3.65 1.83-4.43zm13.44 12.6a26 26 0 0 1 1.41 3.21c.44 1.3.7 3.49 1.31 4.28s.35.9-2.49 2.31-6.38 2.73-7.23 1.88-1.45-4.08-2.08-5.68-1.47-3.19.8-4.15 3-1 4.91-1.78c1.53-.6 3.03-.85 3.42-.04zm5.89 13.7a13.28 13.28 0 0 1 1.41 3.21c.33 1.5 1.18 2.45.82 4.25-.2 1 .84.92-2 2.33s-6.38 2.73-7.23 1.88-1.45-4.08-2.08-5.68-1.47-3.19.8-4.15 3-1 4.91-1.78c1.51-.59 3.03-.84 3.42-.03zm4.63 13.33c.72.23 2.14 4.32 2.9 5.87s1.09 3.71-.33 4.41-2.93 2.11-5.26 2.58-3.81.24-4.24-.47a48.41 48.41 0 0 1-2.29-5.45c-.69-1.94-.56-3.69 1.79-4.47s6.13-2.87 7.48-2.44zm6 15.07a26 26 0 0 1 1.41 3.21c.44 1.3.7 3.49 1.31 4.28s.35.9-2.49 2.31-6.38 2.73-7.23 1.88-1.45-4.08-2.08-5.68-1.47-3.19.8-4.15 3-1 4.91-1.78c1.51-.6 3.01-.84 3.42-.04zm6.12 23.49c-2.84 1.41-6.38 2.73-7.23 1.88s-1.45-4.08-2.08-5.68-1.47-3.19.8-4.15 3-1 4.91-1.78c1.45-.63 3-.87 3.37-.07a13.27 13.27 0 0 1 1.41 3.21c.33 1.5 1.18 2.45.82 4.25-.14 1.02.9.96-1.94 2.37zm-5.38-42.08c2.35-.78 6.09-2.91 7.44-2.48.72.23 2.14 4.32 2.9 5.87s1.09 3.71-.33 4.41-2.93 2.11-5.26 2.58-3.81.24-4.24-.47a48.41 48.41 0 0 1-2.29-5.45c-.64-1.91-.51-3.64 1.84-4.43zm11.9 12.41c1.35-.31 1.74-.09 2.31 1s1.76 5.43 2.47 6.11 1.07 2.16-1.46 2.86c-2.85.79-3.85 1.66-5.22 2.12s-2.24.88-3.24-1.31-1.79-4.76-2.35-5.79-.32-2.31 1.47-3a56.49 56.49 0 0 1 6.02-1.99zm-9 45.62a48.41 48.41 0 0 1-2.29-5.45c-.69-1.94-.56-3.69 1.79-4.47s6.09-2.91 7.44-2.48c.72.23 2.14 4.32 2.9 5.87s1.09 3.71-.33 4.41-2.93 2.11-5.26 2.58-3.83.26-4.25-.46zm-10.25 11.07c2-1 4.54-1.41 5.87-2.16s2.85-.45 3.18 1a9.34 9.34 0 0 0 1.41 3.58 11.07 11.07 0 0 1 1.47 3.19c.15.38.44 1.3-2.71 2.69a32 32 0 0 1-5.63 2.21c-.91.13-2.23-1-3-3.26s-2.63-6.23-.6-7.25zm-4.48-6.28c-1-2.26-1-3-1.85-4.88-.65-1.44-.91-3-.11-3.37a26 26 0 0 1 3.19-1.45c1.3-.46 3.48-.75 4.26-1.37s.89-.36 2.34 2.46 2.81 6.34 2 7.2-4.06 1.51-5.65 2.16-3.18 1.48-4.18-.75zm-11.79 13c.26-.47 1.42-.71 4.5-1.69s2.25-1.4 3.74-2.13 2.57 1.13 3.33 3.41c1.7 5.09 1.66 5.92.81 6.76s-1.68.81-4.87 2.06-3.9.2-4.75-1.38-.76-2.13-1.76-3.74-1.26-2.86-1-3.29zm-4.77-15c1.4-.74 2.89-2.18 5.2-2.7s3.81-.33 4.25.38a48.4 48.4 0 0 1 2.41 5.4c.73 1.93.65 3.68-1.69 4.5s-6 3-7.38 2.64c-.72-.21-2.24-4.28-3-5.81s-1.2-3.72.21-4.46zm-5.85-13.59c.48-1.22 2.41-1.39 3.86-1.81s5.42-2.63 6.21-.52 1.95 4.77 2.32 5.73a2.77 2.77 0 0 1-1.05 3.14c-1 .55-4.55 1.56-5.89 2.09s-3.52-2.75-4-4.06-1.71-3.98-1.46-4.62zm-3.45-7.25c-.84-1.59-.76-2.13-1.76-3.74s-1.26-2.83-1-3.3 1.42-.71 4.5-1.69 2.25-1.4 3.74-2.13 2.57 1.13 3.33 3.41c1.7 5.09 1.66 5.92.81 6.76s-1.68.81-4.87 2.06-3.91.17-4.76-1.42zm-6.73 10.68c6.07-1.64 5.25-1.1 6.14.61s3.39 6.93 2.82 7.75-2.45.37-4.93 2.13a.62.62 0 0 1-.18.09c-3.2.91-4.89 2.11-5.54.71-.49-1.06-.63-3.66-1.29-5.17s-3.09-4.52 2.98-6.16zm-8.18-13.32c2.35-.78 6.09-2.91 7.44-2.48.72.23 2.14 4.32 2.9 5.87s1.09 3.71-.33 4.41-2.93 2.11-5.26 2.58-3.81.24-4.24-.47a48.4 48.4 0 0 1-2.29-5.45c-.72-1.98-.57-3.73 1.78-4.5zm-4.5-5a18.19 18.19 0 0 1-1.76-3.74c-.73-1.85-1.21-2.33-1.3-3.32s.52-.94 2.26-1.77a26.59 26.59 0 0 1 3.35-1.53c2.3-.9 2.29.06 3.77-.45s2.93 5.2 3.48 6.6.44 2.26-.38 2.8-2.23.25-5.33 1.17-2.95 2.03-4.09.22zm-10.19 10.6a43.68 43.68 0 0 1 6-1.93c1-.18 1.34-.53 2.26 1.25a27.14 27.14 0 0 1 2.17 5.35c.46 1.74 1.27 2.67-.41 3.48s-.69.12-5.75 2.26c-1.65.69-3.37.44-4.52-2.5s-1.49-4.36-1.5-5.32-1.34-1.47 1.75-2.61zm-6.44-13.67c2-1 4.54-1.41 5.87-2.16s2.85-.45 3.18 1a9.34 9.34 0 0 0 1.41 3.58 11.07 11.07 0 0 1 1.47 3.13c.15.38.44 1.3-2.71 2.69a32 32 0 0 1-5.59 2.21c-.91.13-2.23-1-3-3.26s-2.66-6.19-.63-7.21zm3.52-15.55a26 26 0 0 1 1.41 3.21c.44 1.3.7 3.49 1.31 4.28s.35.9-2.49 2.31-6.38 2.73-7.23 1.88-1.45-4.08-2.08-5.68-1.47-3.19.8-4.15 3-1 4.91-1.78c1.48-.65 2.99-.9 3.38-.09zm8.51-21c.72.23 2.14 4.32 2.9 5.87s1.09 3.71-.33 4.41-2.93 2.11-5.26 2.58-3.81.24-4.24-.47a48.4 48.4 0 0 1-2.29-5.45c-.69-1.94-.56-3.69 1.79-4.47s6.1-2.9 7.44-2.47zm4.47-32.07c.8 2.11 1.95 4.77 2.32 5.73a2.77 2.77 0 0 1-1.05 3.14c-1 .55-4.55 1.56-5.89 2.09s-3.52-2.75-4-4.06-1.75-3.93-1.5-4.58c.48-1.22 2.41-1.39 3.86-1.81s5.47-2.61 6.27-.51zm9-19.82a9.34 9.34 0 0 0 1.41 3.58 11.07 11.07 0 0 1 1.47 3.19c.15.38.44 1.3-2.71 2.69a32 32 0 0 1-5.63 2.21c-.91.13-2.23-1-3-3.26s-2.65-6.19-.62-7.21 4.54-1.41 5.87-2.16 2.92-.46 3.25.95zm11-11.2c-1.42.71-2.93 2.11-5.26 2.58s-3.81.24-4.24-.47a48.41 48.41 0 0 1-2.29-5.45c-.69-1.94-.56-3.69 1.79-4.47s6.09-2.91 7.44-2.48c.72.23 2.14 4.32 2.9 5.87s1.13 3.72-.29 4.42zm3.73 14.59c-2.84 1.41-6.38 2.73-7.23 1.88s-1.45-4.08-2.08-5.68-1.47-3.19.8-4.15 3-1 4.91-1.78c1.45-.63 3-.87 3.37-.07a26 26 0 0 1 1.41 3.21c.44 1.3.7 3.49 1.31 4.28s.35.91-2.49 2.31zm5.66 3.9a13.27 13.27 0 0 1 1.41 3.21c.33 1.5 1.18 2.45.82 4.25-.2 1 .84.92-2 2.33s-6.38 2.73-7.23 1.88-1.45-4.08-2.08-5.68-1.47-3.19.8-4.15 3-1 4.91-1.78c1.45-.62 2.98-.87 3.37-.06zm10.05-9.92c-2.85.79-3.85 1.66-5.22 2.12s-2.24.88-3.24-1.31-1.79-4.76-2.35-5.79-.32-2.31 1.47-3a56.48 56.48 0 0 1 6-2c1.35-.31 1.74-.09 2.31 1s1.76 5.43 2.47 6.11 1.09 2.17-1.44 2.87zm4.63 14.42a32 32 0 0 1-5.63 2.2c-.91.13-2.23-1-3-3.26s-2.65-6.19-.62-7.21 4.54-1.41 5.87-2.16 2.85-.45 3.18 1a9.34 9.34 0 0 0 1.41 3.58 11.07 11.07 0 0 1 1.47 3.19c.17.35.46 1.27-2.69 2.65zm7 8.71c.76 1.55 1.09 3.71-.33 4.41s-2.91 2.08-5.23 2.58-3.81.24-4.24-.47a48.41 48.41 0 0 1-2.29-5.45c-.69-1.94-.56-3.69 1.79-4.47s6.09-2.91 7.44-2.48c.71.23 2.13 4.37 2.92 5.88zm1.34-11.63c-1.14.3-1.38-2.19-1.58-2.7s-1.24-3.35-1.71-4.35-1.41-2.47-1-2.93 2.11-.83 4.33-1.55 5.09-1.7 5.62-1.47 1.4 3 1.95 4.4 2.33 4.25 1.68 4.65c-.11.07-1.28.5-4.17 1.78a42.51 42.51 0 0 1-5.09 2.17zm3.53 30.6c-2.85.79-3.85 1.66-5.22 2.12s-2.24.88-3.24-1.31-1.79-4.76-2.35-5.79-.32-2.31 1.47-3a56.48 56.48 0 0 1 6-2c1.35-.31 1.74-.09 2.31 1s1.76 5.43 2.47 6.11 1.11 2.17-1.42 2.87zm4.46 5a9.34 9.34 0 0 0 1.43 3.52 11.07 11.07 0 0 1 1.47 3.19c.15.38.44 1.3-2.71 2.69a32 32 0 0 1-5.63 2.21c-.91.13-2.23-1-3-3.26s-2.65-6.19-.62-7.21 4.54-1.41 5.87-2.16 2.92-.46 3.21.98zM412.46 89c-.49.7-2.45.37-4.93 2.13a.62.62 0 0 1-.18.09c-3.2.91-4.89 2.11-5.54.71-.49-1.06-.63-3.66-1.29-5.17s-3.08-4.47 3-6.12 5.25-1.1 6.14.61 3.34 6.89 2.8 7.75zm5.67 14c-.11.07-1.28.5-4.17 1.78a42.51 42.51 0 0 1-5.13 2.16c-1.14.3-1.38-2.19-1.58-2.7s-1.24-3.35-1.71-4.35-1.41-2.47-1-2.93 2.11-.83 4.33-1.55S414 93.74 414.5 94s1.4 3 1.95 4.4 2.33 4.23 1.68 4.6zm3.71 8.91c.55 1.41 2.33 4.25 1.68 4.65-.11.07-1.28.5-4.17 1.78a42.51 42.51 0 0 1-5.13 2.16c-1.14.3-1.38-2.19-1.58-2.7s-1.24-3.35-1.71-4.35-1.41-2.47-1-2.93 2.11-.83 4.33-1.55 5.09-1.7 5.62-1.47 1.41 3.04 1.96 4.44zM432 97.87c-1.42.7-2.93 2.11-5.26 2.58s-3.81.24-4.24-.47a48.41 48.41 0 0 1-2.29-5.45c-.69-1.94-.56-3.69 1.79-4.47s6.09-2.91 7.44-2.48c.72.23 2.14 4.32 2.9 5.87s1.12 3.71-.34 4.42zm2.59 4.44a26 26 0 0 1 1.41 3.21c.44 1.3.7 3.49 1.31 4.28s.35.9-2.49 2.31-6.38 2.73-7.23 1.88-1.45-4.08-2.08-5.68-1.47-3.19.8-4.15 3-1 4.91-1.78c1.49-.63 3.02-.88 3.41-.07zm9.57-9.73a32 32 0 0 1-5.63 2.21c-.91.13-2.23-1-3-3.26s-2.65-6.19-.62-7.21 4.54-1.41 5.87-2.16 2.85-.45 3.18 1a9.34 9.34 0 0 0 1.41 3.58 11.07 11.07 0 0 1 1.47 3.19c.22.34.51 1.26-2.64 2.65zm5.65 4.35c.89 1.71 3.39 6.93 2.82 7.75s-2.45.37-4.93 2.13a.62.62 0 0 1-.18.09c-3.2.91-4.89 2.11-5.54.71-.49-1.06-.63-3.66-1.29-5.17s-3.08-4.47 3-6.12 5.31-1.11 6.17.6zm11-11.24a27.62 27.62 0 0 1-6.07 2.38c-3.11.92-2.19.84-3.34-1a18.19 18.19 0 0 1-1.76-3.74c-.73-1.85-1.21-2.33-1.3-3.32s.52-.94 2.26-1.77 1.85-.73 4.16-1.63 1.48.16 3-.35 2.93 5.2 3.48 6.6.41 2.28-.41 2.82zm6.85 12.72c.08.91-1.1 2.17-3.43 2.78s-6.33 2.29-7.23.2-1.15-4.61-1.81-6-.29-2.87 1.15-3.12a9.34 9.34 0 0 0 3.66-1.2 11.07 11.07 0 0 1 3.26-1.29c.39-.13 1.33-.36 2.53 2.86a32 32 0 0 1 1.89 5.76zm5.52 15.22c-.11.07-1.28.5-4.17 1.78a42.51 42.51 0 0 1-5.13 2.16c-1.14.3-1.38-2.19-1.58-2.7s-1.24-3.35-1.71-4.35-1.41-2.47-1-2.93 2.11-.83 4.33-1.55 5.09-1.7 5.62-1.47 1.4 3 1.95 4.4 2.36 4.25 1.71 4.65zm4.16 14.16a27.62 27.62 0 0 1-6.07 2.38c-3.11.92-2.19.84-3.34-1a18.19 18.19 0 0 1-1.76-3.74c-.73-1.85-1.21-2.33-1.3-3.32s.52-.94 2.26-1.77 1.85-.73 4.16-1.63 1.48.16 3-.35 2.93 5.2 3.48 6.6.4 2.28-.42 2.82z"/><path class="cls-9" d="M382.07 210.28l-70.62-58.08s12.33-55.33 15.65-69.47h4.21l12.89.7 10.89 3.18 12.09 8.69 6.65 11.23-2.22 16.47s8.8-2.28 15.38-4.21 14.14 1.44 20.16 4.26 22 23.28 24.79 29.59c1.05 2.36 1.83 8.83 2.4 16-15.46 12.36-52.27 41.64-52.27 41.64z"/><path class="cls-10" d="M427.41 162.41c-4.95-4.44-12.84-1-12 4.89s4.71 8.17 10 8.76 13.79-5.76 13.66-14.58-4.5-25.3-20.88-37.14c-16.84-12.17-41.35-9.4-44.92.32-2.66 7.24-.94 12.61 5 15.1s16.41-4.24 8.54-10.16c0 0 10.5-3.22 20.56 2 6.89 3.57 18.23 13.05 20.04 30.81z"/><path class="cls-10" d="M367 116.76c-4.26-4.88-11.71-2-12.76 6.29-.7 5.54 5.89 8.73 10.78 8.93s13.06-6.5 13.21-15 .32-22.46-14.94-32.17c-21.05-13.4-41.72-8.15-45.36 1.44-2.71 7.15.52 13.36 6 15.34s13.67-6.41 6.5-11.54c0 0 13.36-3.16 22.6 1.12 6.34 2.97 12.84 8.65 13.97 25.59z"/><path class="cls-8" d="M429.25 160.36c-4.95-4.44-12.84-1-12 4.89s4.71 8.17 10 8.76 13.79-5.76 13.66-14.58-4.5-25.3-20.88-37.14c-16.84-12.17-41.35-9.4-44.92.32-2.66 7.24-.94 12.61 5 15.1s16.41-4.24 8.54-10.16c0 0 11.94-3.4 22 1.8 6.89 3.58 16.79 13.24 18.6 31.01z"/><path class="cls-8" d="M368.85 114.71c-4.26-4.88-11.71-2-12.76 6.29-.7 5.54 5.89 8.73 10.78 8.93s13.06-6.5 13.21-15 .32-22.46-14.94-32.17c-21.05-13.4-41.72-8.15-45.36 1.44-2.71 7.15.52 13.36 6 15.34s13.67-6.41 6.5-11.54c0 0 14.48-2.85 23.72 1.44 6.32 2.96 11.71 8.33 12.85 25.27z"/><path class="cls-7" d="M207.59 194.54c-5.59-9.43-34.68-53-43.26-70.68-10-20.62-39.72-55.8-44.91-62C123 53 140.59 20 169.79 15.59c36.83-5.58 51.83 10.55 61.27 15.76 0 0 3.81-12.9 11.5-17.74S262.18-2.66 288 1.25c14.23 2.16 29.73 10.85 40 20l-23.69 137z"/><path class="cls-8" d="M209.34 36.29c.61.8.35.9-2.49 2.3s-6.39 2.72-7.23 1.87-1.45-4.08-2.07-5.68-1.56-3.45.81-4.15c3.08-.91 5.27-1.05 4.39-1.56A57.77 57.77 0 0 0 188 25.6c-1.16-.24.86 3.7-.29 4.68-1.74 1.47-4.54 1.41-5.87 2.15s-2.85.45-3.18-1a9.34 9.34 0 0 0-1.4-3.58c-.39-.48 0-1.46-.92-1.66s-4.35 1-4.92 1.51.82 1.63 1.43 3.2c.73 1.86 1.21 2.33 1.3 3.33s-.52.94-2.26 1.77a26.59 26.59 0 0 1-3.35 1.53c-2.3.9-2.29-.07-3.77.44-1.11.38-1.81-4.64-2.88-4.83s-3.12 2-3.08 2.57.22.48.32.67c.79 1.53 1.16 3.68-.24 4.42s-2.89 2.17-5.2 2.69c-.86.19-1.15-.2-2.22.29s-5.38 6.73-5.09 7.57 1.48 1.15 2 2.6c1.15 2.94 1.48 4.36 1.49 5.32s1.38 1.45-1.72 2.59c-2.23.82-4.71 1-5 1.66s1.62 3.48 2 3.65.14-.07.22-.1a32 32 0 0 1 5.63-2.2c.91-.13 2.22 1 3 3.26s2.64 6.19.61 7.21c-1.3.65-3.87.79-4 1.44s1.68 3.76 2.25 4 1.31-.4 1.8-.6c1.59-.65 3.17-1.51 4.16.75s1 3 1.84 4.89c.64 1.44.91 3 .11 3.37-.64.32-2.29.78-2.44 1.16s1.33 3.21 1.91 3.33.09 0 .14-.06c1.65-.69 3.37-.43 4.52 2.51s1.48 4.36 1.49 5.32a16.15 16.15 0 0 1-.48 2c0 .58 1.43 2.47 2.07 3.57.86.2 1.9 1.29 2.54 3.24.27.83.69 1.87 1 2.91l.84 1.45c.44.78 6.77 11.37 14.19 23.76-.55-1.34-1.06-2.56-1.29-3.14a2.77 2.77 0 0 1 1.06-3.14c1-.55 4.55-1.56 5.9-2.08s3.51 2.76 3.95 4.06 1.75 3.94 1.49 4.58c-.48 1.22-2.41 1.38-3.87 1.81-1.11.32-3.67 1.67-5.18 1.36l2.85 4.76c.85-.85 1.68-.8 4.88-2.05s3.9-.2 4.75 1.39.76 2.14 1.76 3.74 1.25 2.83 1 3.3-1.42.7-4.5 1.69a7 7 0 0 0-2.4 1.1l2.1 3.5c2.29-1 5.28-2.63 6.47-2.27.72.21 2.23 4.28 3 5.81s1.16 3.68-.24 4.42c-1 .51-2 1.35-3.28 2l2.1 3.51c.63-.21 1.19-.4 1.57-.54 1.34-.53 3.51 2.76 3.95 4.06.2.59.58 1.46.91 2.29l4.7-1.61-.07-.14c-.89-1.72-3.38-6.94-2.81-7.75.4-.57 1.74-.46 3.54-1.31a25.75 25.75 0 0 1 3.66-1.58c1.88-.66 3-1.09 3.46 0s.62 3.67 1.29 5.18a12.11 12.11 0 0 1 1 2.2l5.08-1.74a21.8 21.8 0 0 1-1.17-2.73c-.44-1.3-.7-3.49-1.31-4.28s-.35-.9 2.49-2.3 6.39-2.72 7.23-1.87 1.45 4.08 2.07 5.68a8.79 8.79 0 0 1 .67 2.07l5.45-1.87c-.69-1.2-1.22-3.86-1.77-5.27-.63-1.6-1.47-3.19.81-4.15s3-1 4.91-1.77c1.45-.62 3-.87 3.37-.06a26 26 0 0 1 1.4 3.21c.44 1.3.7 3.49 1.31 4.28a2.4 2.4 0 0 1 .18.26l4.68-1.61c-.49-1.06-.62-3.67-1.29-5.18s-3.08-4.48 3-6.11 5.25-1.09 6.14.62c.75 1.44 2.6 5.32 2.86 7l23.24-8 .1-.71-1.33.55c-1.65.69-3.37.43-4.52-2.51s-1.48-4.36-1.49-5.32-1.38-1.45 1.72-2.59a43.68 43.68 0 0 1 6-1.92c.55-.1.9-.24 1.24-.08l1.47-10.58c-.26-.92-.51-1.84-.77-2.49-.63-1.6-1.47-3.19.81-4.15l.93-.37.6-4.35a8.41 8.41 0 0 1-1.95.66c-2.32.47-3.82.24-4.24-.48a48.4 48.4 0 0 1-2.28-5.45c-.69-1.94-.56-3.69 1.8-4.46s6.09-2.9 7.44-2.47c.21.07.48.46.77 1 .45-3.3.89-6.5 1.3-9.49a8.06 8.06 0 0 1-.61-1.42c-.75-2.29-2.64-6.19-.61-7.21a17.11 17.11 0 0 1 2.51-1c.24-1.8.45-3.39.62-4.72-1.79.64-2.65 1.28-3.76 1.65-1.37.46-2.24.88-3.24-1.31s-1.79-4.76-2.34-5.8-.31-2.31 1.48-3a56.47 56.47 0 0 1 6-2c1.35-.31 1.74-.09 2.31 1 .16.31-.16 1.74.6 1.54s1-6 1.65-9.76c-.6-.55-.78-2.14-.94-2.53s-1.24-3.35-1.7-4.35-1.41-2.47-1-2.93 2.11-.83 4.34-1.55l1.41-.46a8.82 8.82 0 0 0 .88-4.86c-.64.27-1.49.63-2.59 1.12a42.51 42.51 0 0 1-5.13 2.15c-1.14.3-1.37-2.19-1.57-2.7s-1.24-3.35-1.7-4.35-1.41-2.47-1-2.93 2.11-.83 4.34-1.55 5.09-1.69 5.62-1.46 1.39 3 1.94 4.4c.17.44.5 1.05 1 .93.78-.42 2.47-11.61 2.34-13.18-.38-1.36-1.91.67-3-1.08a18.19 18.19 0 0 1-1.76-3.74c-.36-.93-.67-1.51-.89-2-.65-1.1-6.75-2.83-10-3.73-.79-.18-.85.47-1.3.67a42.51 42.51 0 0 1-5.15 2.24c-1.14.3-1.37-2.19-1.57-2.7l-.69-1.82c-.65-.91-4.16-.64-5.81-.59-.85.19 1 2.45 1.34 3.17.75 1.55 1.08 3.71-.34 4.41s-2.94 2.11-5.26 2.57-3.82.24-4.24-.48a48.4 48.4 0 0 1-2.28-5.45c-.57-1.63 1.32-3.88.82-4-10.83 1.09-18.67 4.65-22.89 6-3.53 1.09-7.59 5.81-11.12 10.94-.94 1 .81 2.88 1.84 4.32 1.2 1.68.64 3.68-1.69 4.5a61.28 61.28 0 0 0-7.11 2.62c-1.73.64-1.21 3.4-1.87 3.59s-1.47-2.26-2.27-2.29a2.66 2.66 0 0 0-1.71.66c-.82.54-2.23.24-5.33 1.16s-2.93 2.05-4.08.23a18.19 18.19 0 0 1-1.74-3.73c-.73-1.86-1.21-2.33-1.3-3.33s.43-.41 2.17-1.24c.72-.34 1.52-.17 1.39-1.18-.83-1.91-2.69-1.69-4.14-2.53-.94.25-1.54.22-1.87-.5a4.19 4.19 0 0 1-.23-.68c-2-1.09-3.53-3.05-6.26-3.12-1.17.29-.12.61 0 .92a20.32 20.32 0 0 0 1.58 4.26zm10.21 29.89c-1.68.8-.69.12-5.76 2.25-1.65.69-3.37.43-4.52-2.51s-1.48-4.36-1.49-5.32-1.38-1.45 1.72-2.59a43.69 43.69 0 0 1 6-1.92c1-.18 1.34-.53 2.26 1.25a27.15 27.15 0 0 1 2.24 5.37c.42 1.73 1.23 2.67-.45 3.47zm56 30.8a43.69 43.69 0 0 1 6-1.92c1-.18 1.34-.53 2.26 1.25a27.15 27.15 0 0 1 2.16 5.35c.46 1.74 1.27 2.68-.41 3.48s-.69.12-5.76 2.25c-1.65.69-3.37.43-4.52-2.51s-1.48-4.36-1.49-5.32-1.34-1.44 1.75-2.56zm17.06-21.05a26 26 0 0 1 1.4 3.21c.44 1.3.7 3.49 1.31 4.28s.35.9-2.49 2.3-6.39 2.72-7.23 1.87-1.45-4.08-2.07-5.68-1.47-3.19.81-4.15 3-1 4.91-1.77c1.44-.62 2.97-.86 3.36-.06zm-3.43-4.8c-1.42.7-2.94 2.11-5.26 2.57s-3.82.24-4.24-.48a48.4 48.4 0 0 1-2.28-5.45c-.69-1.94-.56-3.69 1.8-4.46s6.09-2.9 7.44-2.47c.72.23 2.13 4.33 2.89 5.88s1.06 3.72-.36 4.42zm.07 40.34c1.45 2.82 2.81 6.35 2 7.21s-4.06 1.5-5.65 2.15-3.17 1.51-4.16-.75-1-3-1.84-4.89c-.64-1.44-.91-3-.11-3.37a26 26 0 0 1 3.19-1.45c1.3-.45 3.48-.75 4.26-1.36s.86-.35 2.3 2.47zM272.67 94c-.91.13-2.22-1-3-3.26s-2.64-6.19-.61-7.21 4.54-1.41 5.87-2.15 2.85-.45 3.18 1a9.34 9.34 0 0 0 1.4 3.58A11.07 11.07 0 0 1 281 89.1c.15.38.44 1.3-2.71 2.68a32 32 0 0 1-5.62 2.22zm-30.13-31.67c.48-1.22 2.41-1.38 3.87-1.81s5.42-2.62 6.22-.51 1.94 4.77 2.31 5.73a2.77 2.77 0 0 1-1.06 3.14c-1 .55-4.55 1.56-5.9 2.08s-3.51-2.76-3.95-4.06-1.74-3.9-1.49-4.57zm3.42 23c.55 1.41.44 2.26-.38 2.8s-2.23.24-5.33 1.16-2.93 2.05-4.08.23a18.19 18.19 0 0 1-1.76-3.74c-.73-1.86-1.21-2.33-1.3-3.33s.52-.94 2.26-1.77a26.6 26.6 0 0 1 3.35-1.53c2.3-.9 2.29.07 3.77-.44s2.92 5.24 3.51 6.65zm11.87-11.74a48.41 48.41 0 0 1 2.4 5.4c.73 1.93.64 3.68-1.69 4.5s-6 3-7.38 2.63c-.72-.21-2.23-4.28-3-5.81s-1.16-3.68.24-4.42 2.89-2.17 5.2-2.69 3.79-.29 4.23.42zm1.24-18.75a43.69 43.69 0 0 1 6-1.92c1-.18 1.34-.53 2.26 1.25a27.15 27.15 0 0 1 2.16 5.35c.46 1.74 1.27 2.68-.41 3.48s-.69.12-5.76 2.25c-1.65.69-3.37.43-4.52-2.51s-1.48-4.36-1.49-5.32-1.31-1.42 1.77-2.56zm11.37 12c.79-.62.89-.36 2.34 2.46s2.81 6.35 2 7.21-4.06 1.5-5.65 2.15-3.17 1.51-4.16-.75-1-3-1.84-4.89c-.64-1.44-.91-3-.11-3.37a26 26 0 0 1 3.19-1.45c1.27-.39 3.45-.69 4.23-1.3zm-.1 44.11c-1 .55-4.55 1.56-5.9 2.08s-3.51-2.76-3.95-4.06-1.75-3.94-1.49-4.58c.48-1.22 2.41-1.38 3.87-1.81s5.42-2.62 6.22-.51 1.94 4.77 2.31 5.73a2.77 2.77 0 0 1-1.05 3.2zM255.57 97.2c-.84-1.59-.76-2.14-1.76-3.74s-1.25-2.83-1-3.3 1.42-.7 4.5-1.69 2.26-1.4 3.74-2.13 2.57 1.14 3.33 3.42c1.69 5.09 1.65 5.92.8 6.77s-1.68.8-4.88 2.05-3.89.21-4.73-1.38zm2.21 19c-.4.57-1.74.46-3.54 1.31a25.76 25.76 0 0 1-3.66 1.58c-1.88.66-3 1.09-3.46 0s-.62-3.67-1.29-5.18-3.08-4.48 3-6.11 5.25-1.09 6.14.62 3.38 7.01 2.81 7.82zm-16.63-11.79a48.4 48.4 0 0 1-2.28-5.41c-.69-1.94-.56-3.69 1.8-4.46s6.09-2.9 7.44-2.47c.72.23 2.13 4.33 2.89 5.88s1.08 3.71-.34 4.41-2.94 2.11-5.26 2.57-3.82.24-4.25-.47zm-1.37 18.38c-2.84 1.41-6.39 2.72-7.23 1.87s-1.45-4.08-2.07-5.68-1.47-3.19.81-4.15 3-1 4.91-1.77c1.45-.62 3-.87 3.37-.06a26 26 0 0 1 1.4 3.21c.44 1.3.7 3.49 1.31 4.28s.34.94-2.5 2.35zm-14-14.79c-1.15-2.94-1.48-4.36-1.49-5.32s-1.38-1.45 1.72-2.59a43.69 43.69 0 0 1 6-1.92c1-.18 1.34-.53 2.26 1.25a27.15 27.15 0 0 1 2.16 5.35c.46 1.74 1.27 2.68-.41 3.48s-.69.12-5.76 2.25c-1.65.75-3.37.5-4.52-2.5zm3-13.31a32 32 0 0 1-5.63 2.2c-.91.13-2.22-1-3-3.26s-2.64-6.19-.61-7.21 4.54-1.41 5.87-2.15 2.85-.45 3.18 1a9.34 9.34 0 0 0 1.4 3.58 11.07 11.07 0 0 1 1.47 3.19c.16.4.45 1.32-2.7 2.7zm-3.44 33.5c-2.28 1-3 1-4.91 1.77-1.45.62-3 .87-3.37.06a26 26 0 0 1-1.4-3.21c-.44-1.3-.7-3.49-1.31-4.28s-.35-.9 2.49-2.3 6.39-2.72 7.23-1.87 1.45 4.08 2.07 5.68 1.46 3.23-.82 4.2zm-13.78-12.53a9.34 9.34 0 0 0-1.4-3.58 11.07 11.07 0 0 1-1.47-3.19c-.15-.38-.44-1.3 2.71-2.68a32 32 0 0 1 5.63-2.2c.91-.13 2.22 1 3 3.26s2.64 6.19.61 7.21-4.54 1.41-5.87 2.15-2.9.49-3.23-.92zm-3.4-12.94c-1 .18-1.34.53-2.26-1.25a27.14 27.14 0 0 1-2.16-5.35c-.46-1.74-1.27-2.68.41-3.48s.69-.12 5.76-2.25c1.65-.69 3.37-.43 4.52 2.51s1.48 4.36 1.49 5.32 1.38 1.45-1.72 2.59a43.68 43.68 0 0 1-6.06 1.96zM200.58 88a26 26 0 0 1-1.4-3.21c-.44-1.3-.7-3.49-1.31-4.28s-.35-.9 2.49-2.3 6.39-2.72 7.23-1.87 1.41 4.02 2.08 5.66 1.47 3.19-.81 4.15-3 1-4.91 1.77c-1.46.59-2.95.84-3.37.08zm22.52-17a26 26 0 0 1 1.4 3.21c.44 1.3.7 3.49 1.31 4.28s.35.9-2.49 2.3-6.39 2.72-7.23 1.87-1.46-4.16-2.09-5.76-1.47-3.19.81-4.15 3-1 4.91-1.77c1.46-.62 2.99-.87 3.38-.06zm11.09-10.68c-1.42.7-2.94 2.11-5.26 2.57s-3.82.24-4.24-.48a48.4 48.4 0 0 1-2.28-5.45c-.69-1.94-.56-3.69 1.8-4.46s6.09-2.9 7.44-2.47c.72.23 2.13 4.33 2.89 5.88s1.07 3.63-.35 4.33zm4.31 6.13c.89 1.72 3.38 6.94 2.81 7.75-.4.57-1.74.46-3.54 1.31a25.76 25.76 0 0 1-3.66 1.49c-1.88.66-3 1.09-3.46 0s-.62-3.67-1.29-5.18-3.08-4.48 3-6.11 5.25-1.05 6.14.66zm9.42-18.73c1.69 5.09 1.65 5.92.8 6.77s-1.68.8-4.88 2.05-3.9.2-4.75-1.39-.76-2.14-1.76-3.74-1.25-2.83-1-3.3 1.42-.7 4.5-1.69 2.26-1.4 3.74-2.13 2.59 1.07 3.35 3.36zm10.36-13.2c-.84.86-4.06 1.5-5.65 2.15s-3.17 1.51-4.16-.75-1-3-1.84-4.89c-.64-1.44-.91-3-.11-3.37a26 26 0 0 1 3.19-1.45c1.3-.45 3.48-.75 4.26-1.36s.89-.36 2.34 2.46 2.81 6.27 1.97 7.13zm3.4 5.76a9.34 9.34 0 0 0 1.4 3.58 11.07 11.07 0 0 1 1.47 3.14c.15.38.44 1.3-2.71 2.68a32 32 0 0 1-5.63 2.2c-.91.13-2.22-1-3-3.26s-2.64-6.19-.61-7.21 4.54-1.41 5.87-2.15 2.88-.47 3.21.94zm11-11.19c-1.42.7-2.94 2.11-5.26 2.57s-3.82.24-4.24-.48a48.4 48.4 0 0 1-2.28-5.45c-.69-1.94-.56-3.69 1.8-4.46s6.09-2.9 7.44-2.47c.72.23 2.13 4.33 2.89 5.88s1.1 3.63-.32 4.32zm3.65 14.59c-2.84 1.41-6.39 2.72-7.23 1.87s-1.45-4.08-2.07-5.68-1.47-3.19.81-4.15 3-1 4.91-1.77c1.45-.62 3-.87 3.37-.06a26 26 0 0 1 1.4 3.21c.44 1.3.7 3.49 1.31 4.28s.37.82-2.47 2.23zm5.67 3.84a13.27 13.27 0 0 1 1.4 3.21c.32 1.5 1.18 2.45.81 4.25-.2 1 .84.92-2 2.33S275.85 60 275 59.18s-1.45-4.08-2.07-5.68-1.47-3.19.81-4.15 3-1 4.91-1.77c1.45-.58 2.98-.87 3.35-.06zm10.06-9.91c-2.85.78-3.85 1.65-5.22 2.11s-2.24.88-3.24-1.31-1.79-4.76-2.34-5.8-.31-2.31 1.48-3a56.47 56.47 0 0 1 6-2c1.35-.31 1.74-.09 2.31 1s1.76 5.43 2.46 6.12 1.1 2.19-1.43 2.88zm4.45 5a9.34 9.34 0 0 0 1.4 3.58 11.07 11.07 0 0 1 1.47 3.19c.15.38.44 1.3-2.71 2.68a32 32 0 0 1-5.63 2.2c-.91.13-2.22-1-3-3.26s-2.64-6.19-.61-7.21 4.54-1.41 5.87-2.15 2.9-.48 3.23.94zm1.54-8.61c-.49-1.06-.62-3.67-1.29-5.18s-3.08-4.48 3-6.11 5.25-1.09 6.14.62 3.38 6.94 2.81 7.75c-.4.57-1.74.46-3.54 1.31a25.76 25.76 0 0 1-3.66 1.61c-1.88.66-2.97 1.09-3.46 0zm-4.19 33.24a48.4 48.4 0 0 1-2.28-5.45c-.69-1.94-.56-3.69 1.8-4.46s6.09-2.9 7.44-2.47c.72.23 2.13 4.33 2.89 5.88s1.08 3.71-.34 4.41-2.94 2.11-5.26 2.57-3.82.28-4.25-.46zm-2.4 34c-.85-.85-1.45-4.08-2.07-5.68s-1.47-3.19.81-4.15 3-1 4.91-1.77c1.45-.62 3-.87 3.37-.06a13.27 13.27 0 0 1 1.4 3.21c.32 1.5 1.18 2.45.81 4.25-.2 1 .84.92-2 2.33s-6.38 2.78-7.23 1.94zm-5.3 31.53c-.75-2.29-2.64-6.19-.61-7.21s4.54-1.41 5.87-2.15 2.85-.45 3.18 1A9.34 9.34 0 0 0 296 128a11.07 11.07 0 0 1 1.47 3.19c.15.38.44 1.3-2.71 2.68a32 32 0 0 1-5.63 2.2c-.9.16-2.22-.94-2.96-3.23zm-10.69 13.74c.48-1.22 2.41-1.38 3.87-1.81s5.42-2.62 6.22-.51 1.94 4.77 2.31 5.73a2.77 2.77 0 0 1-1.06 3.14c-1 .55-4.55 1.56-5.9 2.08s-3.51-2.76-3.95-4.06-1.74-3.86-1.49-4.51zm-6.19-14.29c.26-.47 1.42-.7 4.5-1.69s2.26-1.4 3.74-2.13 2.57 1.14 3.33 3.42c1.69 5.09 1.65 5.92.8 6.77s-1.68.8-4.88 2.05-3.9.2-4.75-1.39-.76-2.14-1.76-3.74-1.26-2.76-.98-3.23zm-4.68-9.82c-.79-1.53-1.16-3.68.24-4.42s2.89-2.17 5.2-2.69 3.81-.32 4.25.38a48.41 48.41 0 0 1 2.4 5.4c.73 1.93.64 3.68-1.69 4.5s-6 3-7.38 2.63c-.73-.14-2.23-4.2-3.02-5.74zm-7.47 14.2c2.35-.77 6.09-2.9 7.44-2.47.72.23 2.13 4.33 2.89 5.88s1.08 3.71-.34 4.41-2.94 2.11-5.26 2.57-3.82.24-4.24-.48a48.4 48.4 0 0 1-2.28-5.45c-.69-1.88-.56-3.62 1.79-4.4zm-4.49-5a18.19 18.19 0 0 1-1.76-3.74c-.73-1.86-1.21-2.33-1.3-3.33s.52-.94 2.26-1.77a26.59 26.59 0 0 1 3.35-1.53c2.3-.9 2.29.07 3.77-.44s2.92 5.2 3.47 6.61.44 2.26-.38 2.8-2.23.24-5.33 1.16-2.94 2.13-4.08.31zm-10.2 10.59a43.68 43.68 0 0 1 6-1.92c1-.18 1.34-.53 2.26 1.25a27.15 27.15 0 0 1 2.16 5.35c.46 1.74 1.27 2.68-.41 3.48s-.69.12-5.76 2.25c-1.65.69-3.37.43-4.52-2.51s-1.48-4.36-1.49-5.32-1.34-1.37 1.75-2.51zm-5.81-6.47c-.75-2.29-2.64-6.19-.61-7.21s4.54-1.41 5.87-2.15 2.85-.45 3.18 1a9.34 9.34 0 0 0 1.4 3.58 11.07 11.07 0 0 1 1.47 3.19c.15.38.44 1.3-2.71 2.68a32 32 0 0 1-5.63 2.2c-.91.18-2.23-.93-2.97-3.21zm-8.77 12.58a32 32 0 0 1 5.63-2.2c.91-.13 2.22 1 3 3.26s2.64 6.19.61 7.21-4.54 1.41-5.87 2.15-2.85.45-3.18-1a9.34 9.34 0 0 0-1.4-3.58 11.07 11.07 0 0 1-1.47-3.19c-.18-.27-.48-1.2 2.67-2.57zm-5.5-4.74a27.15 27.15 0 0 1-2.16-5.35c-.46-1.74-1.27-2.68.41-3.48s.69-.12 5.76-2.25c1.65-.69 3.37-.43 4.52 2.51s1.48 4.36 1.49 5.32 1.38 1.45-1.72 2.59a43.68 43.68 0 0 1-6 1.92c-1.09.25-1.4.59-2.31-1.19zM211 155c.82-.54 2.23-.24 5.33-1.16s2.93-2.05 4.08-.23a18.19 18.19 0 0 1 1.76 3.74c.73 1.86 1.21 2.33 1.3 3.33s-.52.94-2.26 1.77a26.59 26.59 0 0 1-3.35 1.53c-2.3.9-2.29-.07-3.77.44s-2.92-5.2-3.47-6.61-.41-2.32.38-2.81zm-5-14.25c1.42-.7 2.94-2.11 5.26-2.57s3.82-.24 4.24.48a48.4 48.4 0 0 1 2.28 5.45c.69 1.94.56 3.69-1.8 4.46s-6.09 2.9-7.44 2.47c-.72-.23-2.13-4.33-2.89-5.88s-1.12-3.71.35-4.41zm-7.12-13.88c.4-.57 1.74-.46 3.54-1.31A25.75 25.75 0 0 1 206 124c1.88-.66 3-1.09 3.46 0s.62 3.67 1.29 5.18 3.08 4.48-3 6.11-5.25 1.09-6.14-.62-3.35-6.99-2.78-7.8zm-4.27-14c.82-.54 2.23-.24 5.33-1.16s2.93-2.05 4.08-.23a18.19 18.19 0 0 1 1.76 3.74c.73 1.86 1.21 2.33 1.3 3.33s-.52.94-2.26 1.77a26.6 26.6 0 0 1-3.35 1.53c-2.3.9-2.29-.07-3.77.44s-2.92-5.2-3.47-6.61-.49-2.31.33-2.85zm-2.61-3.96c-.72-.23-2.13-4.33-2.89-5.88s-1.08-3.71.34-4.41 2.94-2.11 5.26-2.57 3.82-.24 4.24.48a48.4 48.4 0 0 1 2.28 5.45c.69 1.94.56 3.69-1.8 4.46s-6.05 2.91-7.43 2.47zm1-27.08c.49 1.06.62 3.67 1.29 5.18s3.08 4.48-3 6.11-5.25 1.09-6.14-.62-3.38-6.94-2.81-7.75c.4-.57 1.74-.46 3.54-1.31a25.76 25.76 0 0 1 3.66-1.58c1.91-.66 3-1.09 3.46-.03zm-4.72-3.68a26.59 26.59 0 0 1-3.28 1.53c-2.3.9-2.29-.07-3.77.44s-2.92-5.2-3.47-6.61-.44-2.26.38-2.8 2.23-.24 5.33-1.16 2.93-2.05 4.08-.23a18.19 18.19 0 0 1 1.76 3.74c.73 1.86 1.21 2.33 1.3 3.33s-.61.93-2.31 1.76zm-6.7 39.32c2.33-.82 6-3 7.38-2.63.72.21 2.23 4.28 3 5.81s1.16 3.68-.24 4.42-2.89 2.17-5.2 2.69-3.81.32-4.25-.38a48.4 48.4 0 0 1-2.4-5.4c-.69-1.98-.6-3.68 1.74-4.51zm-6.65-13c.85-.85 1.68-.8 4.88-2.05s3.9-.2 4.75 1.39.76 2.14 1.76 3.74 1.25 2.83 1 3.3-1.42.7-4.5 1.69-2.26 1.4-3.74 2.13-2.57-1.14-3.33-3.42c-1.69-5.12-1.64-5.95-.75-6.79zM169.8 90c1-.55 4.55-1.56 5.9-2.08s3.51 2.76 3.95 4.06 1.75 3.94 1.49 4.58c-.48 1.22-2.41 1.38-3.87 1.81s-5.42 2.62-6.22.51-1.94-4.77-2.31-5.73A2.77 2.77 0 0 1 169.8 90zm-4.66-14.63c2.33-.82 6-3 7.38-2.63.72.21 2.23 4.28 3 5.81s1.16 3.68-.24 4.42-2.89 2.17-5.2 2.69-3.81.32-4.25-.38a48.4 48.4 0 0 1-2.4-5.4c-.71-1.96-.62-3.7 1.71-4.53zm-.47-20.93c-.48 1.22-2.41 1.38-3.87 1.81s-5.42 2.62-6.22.51-1.93-4.76-2.31-5.76a2.77 2.77 0 0 1 1.06-3.14c1-.55 4.55-1.56 5.9-2.08s3.51 2.76 3.95 4.06 1.74 3.93 1.49 4.58zm3.44 7.25c.84 1.59.76 2.14 1.76 3.74s1.25 2.83 1 3.3-1.42.7-4.5 1.69-2.26 1.4-3.74 2.13-2.57-1.14-3.33-3.42c-1.69-5.09-1.65-5.92-.8-6.77s1.68-.8 4.88-2.05 3.89-.23 4.73 1.36zM174.85 51c-6.07 1.64-5.25 1.09-6.14-.62s-3.38-6.94-2.81-7.75c.4-.57 1.74-.46 3.54-1.31a25.76 25.76 0 0 1 3.66-1.58c1.88-.66 3-1.09 3.46 0s.62 3.67 1.29 5.18 3.07 4.44-3 6.08zm7.68 3.41a48.4 48.4 0 0 1 2.28 5.45c.69 1.94.56 3.69-1.8 4.46s-6.09 2.9-7.44 2.47c-.72-.23-2.13-4.33-2.89-5.88s-1.08-3.71.34-4.41 2.94-2.11 5.26-2.57 3.82-.24 4.25.48zM192.39 44c-2.28 1-3 1-4.91 1.77-1.45.62-3 .87-3.37.06a26 26 0 0 1-1.4-3.21c-.44-1.3-.7-3.49-1.31-4.28s-.35-.9 2.49-2.3 6.39-2.72 7.23-1.87 1.45 4.08 2.07 5.68 1.48 3.15-.8 4.15zm5.32 14.73a43.68 43.68 0 0 1-6 1.92c-1 .18-1.34.53-2.26-1.25a27.15 27.15 0 0 1-2.2-5.4c-.46-1.74-1.27-2.68.41-3.48s.69-.12 5.76-2.25c1.65-.69 3.37-.43 4.52 2.51s1.48 4.36 1.49 5.32 1.37 1.49-1.72 2.63zm5.81 6.47c.75 2.29 2.64 6.19.61 7.21s-4.54 1.41-5.87 2.15-2.85.45-3.18-1a9.34 9.34 0 0 0-1.4-3.58 11.07 11.07 0 0 1-1.47-3.19c-.15-.38-.44-1.3 2.71-2.68a32 32 0 0 1 5.63-2.2c.9-.11 2.22 1 2.97 3.28zm8.62-22a9.34 9.34 0 0 0 1.4 3.58 11.07 11.07 0 0 1 1.46 3.15c.15.38.44 1.3-2.71 2.68a32 32 0 0 1-5.63 2.2c-.91.13-2.22-1-3-3.26s-2.64-6.19-.61-7.21 4.54-1.41 5.87-2.15 2.89-.45 3.22.97z"/><path class="cls-9" d="M211 179.33l86.49-29.65s7.84-56.14 9.69-70.55l-3.95-1.46L291 73.81 279.64 73l-14.37 3.91-10.16 8.19-3.68 16.14S244 96 238.49 91.88s-13.74-3.6-20.38-3.07-28.74 14.1-33.59 19c-1.81 1.84-4.81 7.63-7.85 14.15C186.83 139 211 179.33 211 179.33z"/><path class="cls-10" d="M187.28 120.1c6-2.42 12 3.63 9.28 8.8s-7.07 6-12.07 4.7-10.64-10.24-7.51-18.45S189.7 93 208.67 87.73c19.51-5.47 40.95 5.74 40.9 16.09 0 7.71-3.43 12.13-9.7 12.38s-13.54-9.74-4.35-12.51c0 0-9.74-7.38-20.7-6.05-7.51.9-19.82 6.47-27.54 22.46z"/><path class="cls-10" d="M253.88 98.25c5.55-3.07 11.38 2.23 9.51 10.37-1.25 5.43-8.35 6.1-12.87 4.57s-9.71-10.68-7-18.65 7.35-21.14 24.58-24.86C291.9 64.54 309 76.73 309 87c0 7.64-5 12.32-10.68 12.25s-10.3-10.81-2-13.09c0 0-12.25-7.76-22.14-7-6.76.5-13.5 3.63-20.3 19.09z"/><path class="cls-8" d="M184.83 116.76c6.19-2.42 12.36 3.61 9.52 8.78s-7.27 6-12.4 4.72S171 120 174.26 111.82s13.08-22.12 32.56-27.47c20-5.5 42 5.68 42 16 0 7.72-3.54 12.14-10 12.39s-13.88-9.72-4.44-12.51c0 0-10-7.37-21.24-6-7.73.94-20.39 6.53-28.31 22.53z"/><path class="cls-8" d="M253.66 94.93c5.7-3.08 11.68 2.21 9.75 10.36-1.29 5.43-8.57 6.11-13.22 4.59s-10-10.66-7.13-18.65 7.57-21.15 25.27-24.9c24.41-5.17 41.93 7 42 17.24 0 7.64-5.17 12.33-11 12.27s-10.55-10.79-2-13.09c0 0-12.56-7.74-22.72-7-7.02.58-13.95 3.72-20.95 19.18z"/><path class="cls-11" d="M305.25 149.71c.2-1.8 22.79-122.55 22.79-122.55s-11.52 44.07-11.93 47.37-18.57 75.16-18.57 75.16z"/><path class="cls-7" d="M150.53 294.86c-13.16-2.39-27.85-11.25-50.53-3.28s-46.36 20.08-54.7 42.15-16.75 39.9-9.37 56.39c6.82 15.25 11.81 23.78 22 36.86s38.85 31.2 66.33 28.07 35.84-81.73 40.93-102.35 1.19-54.97-14.66-57.84z"/><path class="cls-12" d="M171.71 325.26c0 12.22-24.11-.09-41.2-.12s-23.26-.24-20.79 18.59 7.52 32.4-4.83 32S91.83 358.9 79.41 358s3.58 53-10.72 61.2S50.25 388.64 44 385.37s-9.4 9.56-16.35-8.19c-6.64-17-3-48.24 20.86-69.87 28.22-25.54 57-29.41 81.57-24.15s41.71 10.54 41.63 42.1z"/><path class="cls-13" d="M33.25 335.37s5.32 6.5 4.43 6.44-6.17-.22-6.17-.22zM115.89 299.07l3.95-.08 1.44 7.31-6.48-.52 1.09-6.71zM57.93 362.3l.69 3.89-6.99 2.56-.5-6.48 6.8.03zM90.61 305.12l3.49 1.85-2.28 7.09-5.42-3.6 4.21-5.34zM72.17 324.21l.69 3.89-6.99 2.56 6.3-6.45zM104.2 299.16c1 .91-2 4.53-2 4.53l-7.22-2.44s3.38-1.92 4.14-3.8a14.91 14.91 0 0 1 2-3.43zM77.2 296.91c1 .91-2 4.53-2 4.53L67.94 299s3.38-1.92 4.14-3.8a14.91 14.91 0 0 1 2-3.43zM51.13 318.57c-.2 1.37-4.91.73-4.91.73l-1.86-7.39s3.44 1.81 5.44 1.43a14.91 14.91 0 0 1 4-.16zM97.71 327.91s5.83 4.44 5 5.69-5.07 3.53-5.07 3.53zM88.41 288.1c.32-.35 4.75 2.53 4.19 3.71s-5.23.78-5.23.78-.12-3.21 1.04-4.49zM37.14 353.15c.32-.35 4.75 2.53 4.19 3.71s-5.23.78-5.23.78-.1-3.21 1.04-4.49zM107.72 282.44l5.92 6.18s-3.52 2.38-5.66 1.44-.26-7.62-.26-7.62zM53.84 344c1-.4 6.37 5 6.37 5l-7.06-.28s-1.36-3.95.69-4.72zM97.82 321.37c-1.1 0-4.09-7-4.09-7l6.46 2.85s-.19 4.16-2.37 4.15zM55.68 326.85s1.19 4 1.4 4.53-5.08-1.83-5.08-1.83 1.84-2.97 3.68-2.7zM73.77 307.2c1.26-.37 5.92 6.18 5.92 6.18s-3.66 1.16-5.38.15.11-2.65-.54-6.33zM82 341.16a30.69 30.69 0 0 1 4-1.92c.64-.07 1.55 6.29 1.55 6.29L82 341.16zM39.1 328.55a30.69 30.69 0 0 1 4-1.92c.64-.07 1.55 6.29 1.55 6.29l-5.55-4.37zM109.45 315.09l2.88 3.87s-3.86.47-4.65-.27 1.77-3.6 1.77-3.6zM60.25 317.48c-1.65-.55-3.9-5.16-4.36-6.38l3.85-2.75 1.25 4zM55.51 300.57c1-1.45 6-2.42 7.3-2.55l1.65 4.43-4.19.16zM26.22 342.24c1.64.58 3.78 5.24 4.22 6.48l-3.91 2.67-1.16-4zM77.8 326.44c-.34-1.7 2.55-5.94 3.38-7l4.3 2-2.86 3.06z"/><path class="cls-5" d="M165.87 490.48c-14.69-2.35-29.57-16-38.06-26.74s-24.39-28.74-29.27-34S85.51 402 92 384.24s10.7-42.87 38.8-54c22.58-8.94 51.45-16.16 75.68-5.58s42.52 29.67 49 48.68S252 447.56 233 464.07s-36 31.39-67.13 26.41z"/><path class="cls-14" d="M180.54 503.87c-15.24-2.44-37.79-10.55-46.6-21.71s-15.09-33.69-20.15-39.16-14.75-30.11-8-48.58 6.86-46.27 36-57.82c23.43-9.28 55.75-15.79 80.89-4.81s44.12 30.79 50.81 50.52-3.57 77-23.25 94.15-37.41 32.54-69.7 27.41z"/><path class="cls-13" d="M210.16 391.84s5.52 6.75 4.6 6.68-6.4-.22-6.4-.22zM125.3 361.01l1.48-2.71 1.49 7.58-6.72-.53 3.75-4.34zM143.12 421.35l.82 4.59-8.25 3.02-.59-7.65 8.02.04zM132.84 396.25l3.63 1.91-2.37 7.36-5.62-3.73 4.36-5.54zM166.53 348.08l.72 4.04-7.26 2.65-.51-6.72 7.05.03zM191.76 377.46c1.08.94-2.12 4.7-2.12 4.7l-7.5-2.53s3.51-2 4.3-3.95a15.48 15.48 0 0 1 2.1-3.56zM127.52 378.36c1.08.94-2.12 4.7-2.12 4.7l-7.5-2.53s3.51-2 4.3-3.95a15.48 15.48 0 0 1 2.1-3.56zM167.45 370.95c-.21 1.42-5.1.76-5.1.76l-1.92-7.71s3.57 1.88 5.65 1.48a15.48 15.48 0 0 1 4.12-.16zM159.83 389.2s6 4.61 5.14 5.9-5.26 3.66-5.26 3.66zM172.2 355.63c.33-.37 4.93 2.63 4.35 3.85s-5.43.81-5.43.81-.12-3.29 1.08-4.66zM148.05 403.5c.33-.37 4.93 2.63 4.35 3.85s-5.43.81-5.43.81-.11-3.33 1.08-4.66zM149.25 362.9l7 7.29s-4.15 2.81-6.67 1.7-.33-8.99-.33-8.99zM185.23 357.78c1.06-.42 6.61 5.19 6.61 5.19l-7.33-.29s-1.4-4.06.72-4.9zM181.16 390.71c1.31-.39 6.14 6.41 6.14 6.41s-3.8 1.21-5.58.16.12-2.75-.56-6.57zM187.63 408.8a31.85 31.85 0 0 1 4.13-2c.66-.08 1.6 6.53 1.6 6.53l-5.73-4.53zM165.51 378.11l3 4s-4 .49-4.82-.28 1.82-3.72 1.82-3.72zM149.9 397.93c-1.95-.65-4.6-6.08-5.15-7.53l4.54-3.25 1.47 4.72zM114.23 383.3c1.7.61 3.92 5.44 4.38 6.72l-4.05 2.77-1.2-4.18zM144.44 345.27c1.7.61 3.92 5.44 4.38 6.72l-4.05 2.77-1.2-4.18zM135.53 386.21c-.35-1.77 2.64-6.16 3.51-7.21l4.46 2-3 3.18z"/><path class="cls-15" d="M439.69 294.78c11.78 1.17-6.5 15.48 5.84 21.74 6.29 3.19 8.56 3.91 14.54 10.34 17.72 19 32.33 54.92 20.38 83.77s-33.16 47.52-44 53-22.15 11-37.37 6.65-32.6 1.42-49.46-9.6-55.43-43.15-38-85.67 72.76-85.73 128.07-80.23z"/><path class="cls-16" d="M440.1 276c17.79 1.77 33.23 9.73 50.95 28.76s36.63 49 24.68 77.82-33.16 47.52-44 53-22.15 11-37.37 6.65-32.6 1.42-49.46-9.6-55.43-43.15-38-85.67 37.9-76.48 93.2-70.96z"/><path class="cls-13" d="M482.36 342s5.32 6.5 4.43 6.44-6.17-.22-6.17-.22zM432.73 307.63l3.96-.08 1.44 7.31-6.49-.52 1.09-6.71zM465.73 308.4l.78 4.43-7.95 2.91-.56-7.37 7.73.03zM426.64 335.26l3.5 1.85-2.28 7.08-5.42-3.59 4.2-5.34zM458.35 292.78l.69 3.89-6.99 2.56-.5-6.48 6.8.03zM479.83 326.51c1 .91-2 4.53-2 4.53l-7.22-2.44s3.38-1.92 4.14-3.8a14.91 14.91 0 0 1 2-3.43zM402.72 329c1 .91-2 4.53-2 4.53l-7.27-2.53s3.38-1.92 4.14-3.8a14.91 14.91 0 0 1 2-3.43zM454.32 332.51c-.2 1.37-4.91.73-4.91.73l-1.86-7.39s3.44 1.81 5.44 1.43a14.91 14.91 0 0 1 4-.16zM460.82 366.55s5.83 4.44 5 5.69-5.07 3.53-5.07 3.53zM445.77 307.06c.32-.35 4.75 2.53 4.19 3.71s-5.23.78-5.23.78-.11-3.21 1.04-4.49zM422.51 353.19c.32-.35 4.75 2.53 4.19 3.71s-5.23.78-5.23.78-.11-3.21 1.04-4.49zM433.38 286.63l6.73 7s-4 2.7-6.43 1.64-.3-8.64-.3-8.64zM477.41 308c1-.4 6.37 5 6.37 5l-7.06-.28s-1.36-3.96.69-4.72zM454.42 340.86c1.26-.37 5.92 6.18 5.92 6.18s-3.66 1.16-5.38.15.11-2.65-.54-6.33zM464.22 343.93a30.69 30.69 0 0 1 4-1.92c.64-.07 1.55 6.29 1.55 6.29l-5.55-4.37zM439.33 328.73l2.88 3.87s-3.86.47-4.65-.27 1.77-3.6 1.77-3.6zM443.59 353.25c-1.88-.62-4.43-5.86-5-7.26l4.37-3.13 1.42 4.55zM389.91 333.72c1.64.58 3.78 5.24 4.22 6.48l-3.91 2.67-1.16-4zM419 297.07c1.64.58 3.78 5.24 4.22 6.48l-3.91 2.67-1.16-4zM410.14 323.32c-.34-1.7 2.55-5.94 3.38-7l4.3 2-2.82 3.09z"/><path class="cls-17" d="M393.48 291.17c-42.83.61 13.47-.64 18.27 4.2s11.55-13.88 31.28 1c0 0 1.29 30.66-32.3 32.69-16.5 1-18.21-5.08-30.33-4.24s-14.58 13.65-18.4 25.84-13.83 24.25-27.27 28.95c-63.93 22.33-119.46 3.62-131.35 7.82-16.28 5.74-29.56-8.54-36.77-13.39-20.54-13.81-9.14-30.36-30-27.29-7 1-8.37 9.59-15.84 7-6.93-2.42-24.13-27.25-19.1-31s2.46 1.53 25.34-7.79 101.17 36.76 161.09 23.91 87.87-25.71 95.47-37.14S406 291 393.48 291.17z"/><path class="cls-18" d="M295.22 119.32c13.25 5.58 43.81-1.16 55.68 27.33 6.27 15 10.73 15.66 15.82 20 14.47 12.22-.66 16.52 15.62 20.34 8.28 1.94 22.45-4.46 28.44 6 8 14.06 17.8 23.32 15.12 35.4-3.78 17-6.19 16 6.18 39.64s20.7 31.3-2.43 50.38-40.12-9.09-58.21 7.73-12.66 29.34-19.71 39.43-19.82 48-38.11 36.95-28-16.1-43.34-6.57-14 16.63-30.87 1.95-15.55-18.18-40.3-15.81-12.21-5.94-26.26-12.29-15-34.18-30-30.94c-15.4 3.31-10.42 6.67-22.1 14.89-7.14 5-28.81-27.64-22.72-37.8 7.94-13.24.22-10.89 5.51-24.42 4.67-11.93 10-18.55-2.22-30.93-13.24-13.44 4.92-8.2 2.15-20s-1.63-19 4.11-26.14S130 200.41 130 200.41s-1.74-13.87-.82-20.15 2.65-19.52 19.48-20.47 26.08-21.64 36.93-25.62 13.57-7.86 29.32-7.26a60.16 60.16 0 0 0 27.57-5.59s15.24-17.78 52.74-2z"/><path class="cls-5" d="M326.57 357.25c6.92-.22 27 21.06 38 26.36s14.56-28.91 25.43-21.77 21.88 27 21.55 32.46 2.5 14.07 3.6 20.23-4 18.1-6.51 23.55-12.69 11.18-17 13.77-60.1 29.3-60.1 29.3l-81.3-4.67c-8.22-1.34-25.25-13.12-28.39-35.71-1.27-9.12-2-24.76.32-36.53 3-15.06 20.35-30.92 41.19-36.9 12.21-3.5 7.22 2.6 21.15-5.32s1.55-3.46 42.06-4.77z"/><path class="cls-7" d="M384 374.56c6.56 3.69 22.6 35.91 23.74 44.78S404 467.63 385.63 475s-21.72 25.64-48.95 27.76-72.6-11.58-83.39-20.55-26.39-38.11-24.69-55 6-40.09 18-49 42.94-56.72 137.4-3.65z"/><path class="cls-12" d="M295.94 335.33c27.14-3.09 59.83 3.87 74.88 12.09 19.75 10.78 21.51 17.5 29 30.22s18.74 44.94 3.11 42.1c-29-5.28-19.2 15.21-28.29 23.18s-24.52-31.93-34.9-28.73c-4.48 1.38.46 14.89-9 21.1-12 7.92-2.11 32.72-12.12 35.28-17.6 4.49-14.92-22.3-24.86-26.43s-13.29 16.43-25.86 7.32-24.72-35.53-32.78-29.1-13.66-10.27-8.67-26.59 26.98-55.6 69.49-60.44z"/><path class="cls-13" d="M377.15 353.85s5.36 6.76 4.48 6.69-6.18-.26-6.18-.26zM339.5 345.67l3.95-.06 1.49 7.57-6.49-.58 1.05-6.93zM292.72 400.93l.72 4.03-6.99 2.61-.53-6.71 6.8.07zM263.36 383.51l3.51 1.94-2.24 7.31-5.45-3.75 4.18-5.5zM292.41 347.45l.71 4.03-6.98 2.6-.54-6.71 6.81.08zM356.42 367.44c1 .95-2 4.67-2 4.67l-7.25-2.57s3.37-2 4.12-3.91a15.29 15.29 0 0 1 2-3.53zM261.34 357.51c1 .95-2 4.67-2 4.67l-7.25-2.57s3.37-2 4.12-3.91a15.29 15.29 0 0 1 2-3.53zM248 388.7c-.2 1.41-4.91.73-4.91.73l-1.91-7.66s3.46 1.89 5.45 1.51a14.44 14.44 0 0 1 4-.14zM339.94 375.74s5.86 4.63 5 5.92-5.05 3.62-5.05 3.62zM326.33 336.35c.32-.37 4.77 2.65 4.22 3.86s-5.24.77-5.24.77-.13-3.31 1.02-4.63zM279.4 385.15c.32-.37 4.77 2.65 4.22 3.86s-5.24.77-5.24.77-.13-3.31 1.02-4.63zM357.33 339.3l6 6.43s-3.51 2.44-5.65 1.46-.35-7.89-.35-7.89zM379.89 377.86c1-.41 6.4 5.21 6.4 5.21l-7.07-.33s-1.38-4.06.67-4.88zM315 381.08c1-.41 6.4 5.21 6.4 5.21l-7.07-.33s-1.33-4.06.67-4.88zM366.42 371.94s1.21 4.12 1.43 4.7-5.1-1.93-5.1-1.93 1.83-3.06 3.67-2.77zM317.2 343.19c1.26-.38 6 6.43 6 6.43s-3.66 1.18-5.38.13.06-2.75-.62-6.56zM348.81 388.75a29.87 29.87 0 0 1 4-2c.64-.07 1.59 6.51 1.59 6.51l-5.59-4.51zM300.47 363.32a29.87 29.87 0 0 1 4-2c.64-.07 1.59 6.51 1.59 6.51l-5.59-4.51zM331.44 360l2.91 4s-3.86.46-4.65-.31 1.74-3.69 1.74-3.69zM313.91 338.2c-1.44 1-6.47-.12-7.73-.52l.15-4.89 3.94 1.54zM243.2 361.42c1.64.62 3.82 5.45 4.26 6.73l-3.89 2.73-1.18-4.18zM273.46 344.61c-.21-1.79 3-5.88 3.92-6.84l4.13 2.44-3.1 2.89zM265.62 368.73c-.35-1.77 2.51-6.13 3.34-7.17l4.31 2.07-2.84 3.15z"/><path class="cls-19" d="M426.08 224.47c-4 12.22-29.55 21-18.57 33.87 5.05 5.91 4.08 12.2-2.32 10.11s-7.13-1.64-12.85 1.43-4.2 8.74-8.68 10.52-11.43-2-18.7 1-11 10.94-11 10.94l-11.65 5.77s-17.86 11-14.9 10.35c22.17-5.23 24.54-8.75 34-5s12.86 5.44 17-6.1c3.42-9.41 4.28-11.78 12-12.58 6.14-.64 6.17-2.34 14.54-2s12.35 3.46 16.69-1.8 6.61-10.33 4.09-16.09-8-8-5.59-13.11 6.64-18.45 5.94-27.31zM104.39 264.4c5.34 3.72 19.83 9.69 25.91 7.73s7.62 5.07 10.29 6.93 8.15 6.43 11.4 5 9-3.36 10.51-3.33 11.76-1.22 17.93 5.57c3.38 3.7 3.72 7.8 13.57 10.7s3.18 9.66 8.24 10.22 27.25-2.8 35-.1c0 0-10.53 1.58-17.12 3.92s-16.74 12.62-24.47 10.2-8.46-8.13-10.07-9-3.9-2.23-6.91-1.11-9.49.81-10.68-4.23 4.36-11.58-.13-12.24-7.43.52-11.89 1.31-11.36 10.86-15.45 4.28-3.05-19.61-11.57-17c-10.88 3.33-11.17-6.37-12.42-4.58-1.92 2.75-7.56 7.19-12 10 .02.02 6.47-11.67-.14-24.27zM314.28 327.39c-6.62-4.37-20-10.75-28.43-10.42s-17.39 8.94-19.82 3.53-8.69-7.8-13.84-7.18-17.7 7.24-17.7 7.24c-6 4-13.42 5-17.84 3.17s-12.6 6.33-12.6 6.33 10.85-4.7 16.15.49 11.58 6 15.94 2.57 4.95-9.93 11.71-9.68 14.17 7.41 19.8 7.87 11.8-5.9 13.73-6.53 1-4.27 10.14.39 18.08 2.17 22.76 2.22zM343.58 228.14c-7.58-.66-14.34-8.3-19.89-10.74s-14-1.8-19.19-1-12.83 3.2-16.38 0-11-.28-11-.28-3.63 11.81-7.73 12.28-6.78-3.15-12.78 1.06-11.8 9-14.61 13.4-3.26 12.94-6.91 14-4.64 4.14-8.23 8.44-10.22 14.89-12.86 16.64c8.63 1.55 15.43.95 21-7.89s13.37-14.13 18.36-13.38-5.63-14.53 5.87-16 11.71-4.71 17.94 2.13 15.68-9.76 19.41-13.23.21-10.44 8.64-7.58 13.22-.45 20.08 2.17 1.47 6.39 14.83 8.64 11-3.47 15.32-5.51c7.79-3.68 5.07-14.28 5.07-14.28s-3.69 12.3-16.94 11.13zM178.7 240.45c-6.38.79-7.36-11.83-14.89-8.16s-10.62 6-15.05 2.39-4.33-11.2-9.21-12.38-7.08 1.26-12.43.75a17.57 17.57 0 0 1 7.49 6c2.79 4.18 5.78 14.45 8.94 17.39s10 5.52 14.28-.2 2.63-9.81 8.1-7 .52 4.58 8.24 5.25 6.16-3.14 12.61-1.37c-.02-.02 2.78-4.02-8.08-2.67z"/><path class="cls-18" d="M218.88 183.94c4.85-2.25-7.91 3.16-22.15-6.28s-10.15-16-21.52-14.28-7.75 9-16.17 4.34-10.83-5.08-17.74-1.22-10.84 16.24 4.92 17.82 18.77.46 32.61 7.63 30.88-3.75 40.05-8.01z"/><path class="cls-18" d="M261.53 133.13c-5.18-3.47-14.94-5-16.31 3.73s12.47 10.05 2.2 12.21c-5.22 1.1-9.51-2.05-14.4 5-5.27 7.55-2.72 12.92.25 17.69s-5.26 4.47-10.34 7.13-17.86 9.6-1.79 9.66 15.76 1.58 26.1-4.35 14-10.08 16.55-17 5-24.26 5-24.26z"/><path class="cls-19" d="M280.8 165.91c-5.21 3.17 21.83 2.83 27.68 6.17s-3.05 18.94 9.65 18.14 9.1-11.26 14-11.55 4.46-2.08 9.38-2.5 14.08 6.72 14.08 6.72 14.51 11.34 17.78 1.44c1.21-3.66 1.18-8.53-1.4-11.58 0 0-2.41 9.05-6.37 5.22s-11.52-7.3-14.19-9.16-5.46-1.56-8.41.33-5.46 5.56-8.89-.65-9.53-11-11.51-5.65-7.75 9-9.87 5.26-16.9-6.34-19.79-11.08-6-5.94-8-.9.6 6.88-4.14 9.79zM157.35 180.24c8.79 2.73 22.07 7.46 25.51 15.32s11.65 19.54 18.81 12.13 10.06-9.09 17.83-8.14 13.57 9 20.27 7.2-1.24 7.81-10.54 4.8-9-9.5-15.13-4.61-4.62 10.17-9.69 12.82-16.89 3.59-14.86-1.44-5.34-8.69-5.34-8.69l-7 5s-13.26 2.65-11.48-3.8 5.26-11.45 5.19-13.48.92-6.3-7.79-7.67-12.6-1.85-14.67-5.28-5.39-9 4.21-12.43-4.29 5.49 4.68 8.27z"/><path class="cls-20" d="M40.6 403.24s-1.51 7.5-.46 9.72.71 6.45-1.65 8 .81 5.77 1.76 8.67 3.33 12.55 9.95 11.59 4.48 4.24 4.48 4.24l4.09 10.66a6.25 6.25 0 0 0 5.73 5.11c5.15.62 4.33.54 9.8 4.61s14.5 10.09 14.5 10.09 4.6 8.6 8.35 11.22 20.21 6.48 20.21 6.48l9.57-.39s10.59 5.34 15.3 8.45-3.77 2.2 4.71 3.1 15.45 5.58 23.65 6.09 22.28 4.58 22.28 4.58 13.45 4.18 18.33 3.31 21.23 6.08 33.21 6.91 25.06-1.94 25.06-1.94l19-2.73s43.85-5.9 54.78-7.27 17-.26 17-.26l13.27-5.43 11.54-5.34a69 69 0 0 1 15.58-3.45c8.62-.85 24.77-7.49 24.77-7.49l12.72-9.66s20.86-8.31 28.59-11.66 17.71-11.26 17.71-11.26l13-10.69s9.86-21.86 17.75-26.77 8-5.37 12.36-8.11 6.89-5.61 6-9.39 1.89-9.1 1.89-9.1l6.57-13.86s2.95-9.29-.87-11-3.5-8.58-3.5-8.58l-1.12-8.78s-8.95-1-10.85-3.11A6.07 6.07 0 0 0 521 348s-1.56 3.56.63 6 3.56 3.53 2.56 7-6.77 2.92-6.5 9 .54 10.42-2.4 11.16 1.31 0-.38 4-5.74 3.43-6.71 5.36-1 8-1 8a19.65 19.65 0 0 1-8.08 3.88c-5.45 1.41-3.28 5-6.45 3.12s-5-4.59-7.7-3.89-3.26 3.86-4.55 8.91-3.65 10.29-6.49 12.76-.08 2.11-3.86 6.67-5.69 3.44-7.78 4.75a24.73 24.73 0 0 1-4.58 2.16s.92-.93-5.14 5.55c-3.68 3.94-29.12-7.3-30.83-4.59s-12.48 0-15.45.56-4.54 19.65-7.38 22.56-.24 1.14-5.33 5.77.81 5.77-6.25 5.49-12.09 6.77-12.7 4.13-1.1-5.4-5-6.24-6.38-.18-7-3.36-3.83 3.09-5.7 3.64-.09 4.4-4.34 8.88-4.45 8.24-10.38 10.61a39.23 39.23 0 0 1-13 2.3s-5.54-3.25-10.45-.48-21.81 2.7-29.37 3.18c-13.43.86-41.18-17.21-41.18-17.21s-8.09 2.54-12.84 2.94a16.27 16.27 0 0 0-11.25 5.73c-2.52 3.08 3.07 8.65-2.24 9.6s-.82 8.91-4 4.44-3.22.35-7-1 1.76-1.19-3.61-3.08-7.74-10.23-9.61-13.4a53.9 53.9 0 0 0-6.2-9c-3.34-4-15.74 8.17-21.76 10.66s-7.44 3.73-17.75 1.19-7.28 2.17-15.48-2.06-1.36-14-8.21-17.82c-8-4.49-6.07-13.16-11.39-13.53s-10.72 2.56-18.55-.86c-8.92-3.9-8.21-1.82-10.07-6.09s-1.94-12.14-8.62-16.43-7.31-4.17-13.86-6.51-10.44-4.5-13.17-7.51-8.47-12.76-12-11.7z"/><path class="cls-21" d="M63.57 417c.86-.33 4.79.74 4.79.74a29.85 29.85 0 0 1-.8 7.81c-1 3.24-.93 5.39-3.65 3.26s-4.29-10.3-.34-11.81z"/><path class="cls-13" d="M74.11 428.68a13.35 13.35 0 0 1 5 2l3.8 3.49 1.32 5.83-9.71.85s-4.83-4.21-3.73-7-.23-5.42 3.32-5.17zM47.53 420s8.42-.77 10.25.15 6.43 4.28 7 9.49-5.78 5.84-5.78 5.84z"/><path class="cls-21" d="M47.28 413.46c.55-.4 5.22 4.76 5.31 5.41s1.29 9.65-2.14 10.11-5.66-3.17-5.66-3.17-.1-10.47 2.49-12.35z"/><path class="cls-13" d="M45.35 407.36s-4.18-6.27-6.52-5.85-3.82 4.4-3.82 4.4l1.25 7s3.89 2.16 5.76 1.6 3.33-7.15 3.33-7.15z"/><path class="cls-21" d="M67.56 434.15c.86 2.62 2.38 3.52 1.44 5.66s-4.68 3.24-7 2.77-6.56-3.65-6.56-3.65-1-4.63 2.78-5.31 8.87-.92 9.34.53zM50.14 436.37l5.55 7.78-3.42 5.43s-5.05-5-4.5-9.28c.23-1.37 2.37-3.93 2.37-3.93zM32.9 417l9.44 1.45 1.51 6.23s-7.12.12-9.78-3.25c-.87-1.11-1.17-4.43-1.17-4.43z"/><path class="cls-13" d="M89.68 436.57s8.51 3.52 7 7.3-6.9 8-10 7.7-4.12-3.43-4.34-4.7 7.34-10.3 7.34-10.3zM58 448.71s9-1.16 9.32 3.16-6.75 8.87-6.75 8.87L53 451.57z"/><path class="cls-21" d="M73 446.35c2.09 2.48 2.78 8.4 2.78 8.4s-.71 6.25-3.36 4.8-6.72-6.14-6.72-6.14l-.7-10.92s5.27.67 8 3.86zM103.62 465.21c.86-.33 3.11-1.37 4.79.74s.16 4.57-.8 7.81-.93 5.39-3.65 3.26-4.29-10.29-.34-11.81z"/><path class="cls-13" d="M107.3 445.7l5 2 5.17 9.38-3.56 3.37-6.14-2.52s-4.83-4.21-3.73-7a18.83 18.83 0 0 1 3.26-5.23zM82.89 462.42s9.43 2.86 10.36 3.83 2.12 3.72-2.68 5.58-12.07 1-12-.32 4.32-9.09 4.32-9.09z"/><path class="cls-21" d="M97 460.65c-.16-.67 6.41-3 7-2.8s9.4 2.55 8.49 5.9-5.12 4-5.12 4-9.69-3.98-10.37-7.1z"/><path class="cls-13" d="M96.73 454s-4.18-6.27-6.52-5.85-3.52 3.28-3.82 4.4c-.78 3-.12 5.5 1.25 7a6 6 0 0 0 5.76 1.6c1.87-.53 3.33-7.15 3.33-7.15zM48.81 425.3s-6.81 3.3-6.68 5.7 2.78 3.93 3.85 4.37c2.85 1.18 5.43.86 7.11-.29a6 6 0 0 0 2.36-5.49c-.29-1.96-6.64-4.29-6.64-4.29z"/><path class="cls-21" d="M96.91 472.3s2.38 3.52 1.44 5.66-4.68 3.24-7 2.77-6.56-3.65-6.56-3.65-1-4.63 2.78-5.31 9.34.53 9.34.53zM189.68 502.45s2.38 3.52 1.44 5.66-4.68 3.24-7 2.77-6.56-3.65-6.56-3.65-1-4.63 2.78-5.31 9.34.53 9.34.53zM78.32 464.22s2.38 3.52 1.44 5.66-4.68 3.24-7 2.77-6.52-3.65-6.52-3.65-1-4.63 2.78-5.31 9.3.53 9.3.53z"/><path class="cls-13" d="M77.77 453.36s5.19 4.55 5.55 7.78-1 5.44-3.42 5.43-7.65-8.5-7.65-8.5zM191.23 481.59s5.19 4.55 5.55 7.78-1 5.44-3.42 5.43-7.65-8.5-7.65-8.5zM101 478.14s8.51 3.52 7 7.3-10 7.7-10 7.7l-4.34-4.7s1.54-11.02 7.34-10.3zM113 470.28c3.46-.27 9-1.25 9.15 2.15s-3.31 8.49-7 7.27-6.89-5.48-7.16-7 1.54-2.15 5.01-2.42z"/><path class="cls-21" d="M112.1 476.39c3.18.63 7.43 4.81 7.43 4.81l.38 5.85-9.08-.57-3.87-7a4.34 4.34 0 0 1 5.14-3.09z"/><path class="cls-13" d="M128 476l11.35 3.46s.49 2.76-5.14 6.83-4.66-1.58-6.47-1.91-1.42-8.11.26-8.38z"/><path class="cls-21" d="M126.36 464.21l4.5 9.28s-8.65 6.8-10.69 5.19-1-7.93-1.68-10.65a8.38 8.38 0 0 1 2.36-7.65c1.73-1.38 5.51 3.83 5.51 3.83zM120.68 488.88c-3.11-.79-5.23 1.37-7.55 3.1s1.43 4.35 2.29 5.51 7.95.34 10.27-1.39-2.49-6.57-5.01-7.22zM183.22 482.14c-3.11-.79-5.23 1.37-7.55 3.1s1.43 4.35 2.29 5.51 7.95.34 10.27-1.39-2.49-6.58-5.01-7.22zM113.87 488.78c-1.19-1.76-6.41-2.8-6.41-2.8s-5.41 1.62-6.55 3.79 8.33 6.18 8.33 6.18z"/><path class="cls-13" d="M124.71 482l-7.93 1s-.41 5.11 1.38 6.54 7.73.38 7.73.38l1.85-5.59zM190 473.69l-7.93 1s-.41 5.11 1.38 6.54 7.73.38 7.73.38l1.85-5.59z"/><path class="cls-21" d="M141.77 485.57l10.08 7.43-4.17 4.9s-4.4-.09-7.31-.45-6.64-4.08-6.64-4.08l2.54-7.9z"/><path class="cls-13" d="M126.45 497.93l4.31-7.78s4.25-.76 5.17-.48 3.65 3.29 3.65 3.29v7.45l-11.4 1.15zM162.6 486.9c5.45 2.32 5.08 3.92 5.82 6.85s-.72 5.82-4.48 5.62-7.34 3.06-9.21 1.2l-6.13-6.14z"/><path class="cls-21" d="M159.94 502.71c2.56.86 8.3 3.56 5.71 6.21s-7.79.51-10.59.79-5.07-6.33-5.07-6.33zM137.9 498.3s6.74-2.73 7.7.16 5.88 12.1 4.74 11.86-7.1-.49-9.62-1.14-5.53-6.46-5.53-6.46.24-3.54 2.71-4.42zM171.14 488.12s9.1 1.89 7.43 4.81-6.71 5.36-7.31 5.68-7.16-3.33-7.16-3.33 5.45-6.22 7.04-7.16z"/><path class="cls-13" d="M180.94 493.93c1.06.19 6 5.29 5.88 6s-9 4.67-9 4.67l-7.06-6.41s5.24-5.13 10.18-4.26z"/><path class="cls-13" d="M168.63 499.85c1.49-.35 10.85 3.11 11.23 5.23s4.1 8.25 2.69 8.94-9-2.77-11.95-3.13-9.79-3.3-9.51-4.22 3.54-5.89 7.54-6.82z"/><path class="cls-21" d="M196 496.73c4.52-1.44 11.8 2.28 12.15 4.26s-4.62 5.2-4.62 5.2-8.12-2.94-8.55-3.74-3.16-4.39 1.02-5.72z"/><path class="cls-13" d="M196.46 506.72c1.3.52 3.8 5.35 3.8 5.35l-2.54 3s-2.9 4-6.48.5-4.37-6.12-4.37-6.12l1.26-4.61a74.31 74.31 0 0 1 8.33 1.88zM187.84 492.7s6.81 2 6.07 4-.67 5.49-1.71 5.78-5.3-.26-7.32-1.11-3.18-3.71-3.18-3.71 3.29-2.45 3.15-3.85 1.15-1.65 2.99-1.11z"/><path class="cls-13" d="M204.09 507.12c1.85 1.15 5 1.63 5.34 2.33s1.69 3.31-.63 3.84-5.11 2.66-5.54 2.74-6.48-2.57-6.48-2.57l3.05-6.24s3.03-.87 4.26-.1z"/><path class="cls-21" d="M218.45 512.12c-2.25 1.5-3.71 2.52-5.14 1.9s-3.43-3.88-4.27-6.14-2.19-5.53-1.28-6.56a6.34 6.34 0 0 1 4.9-2.62c2.82-.17 5.42 2.76 5 3.49s3.05 8.43.79 9.93z"/><path class="cls-13" d="M201 492.12l5.64 1.52s0 5.27-1.72 6.33-5.72-.74-5.72-.74zM57.49 436.6l5.64 1.52s0 5.27-1.72 6.33-5.72-.74-5.72-.74zM221.35 513c-1.91-.13-6 .4-5.91 1.27a46.62 46.62 0 0 0 1 5.41c.18.41 1.28 3.5 4.62 3.78s4.57-2 5.63-2.21.87-7.79-5.34-8.25z"/><path class="cls-21" d="M221.47 496.47l2-4.19s9.58 2.13 8.93 4-1.15 8.31-1.15 8.31-5.92 1.82-7.52 1.45-2.9-7.04-2.26-9.57zM212.81 516.08s6.24 3.05 6.69 3.74-1.39 2.66-1.39 2.66-7.39.33-8.25-.18-2-3.15-2-3.15zM205.46 513.56s.34 5-.09 5.05-6.3-.3-6.3-.3l-2.88-3.87s6.57-1.28 9.27-.88zM154.68 482.39s7.85 5.94 5.36 7.37-6 .53-6 .53l-3.09-5a37 37 0 0 1 3.73-2.9zM243.76 512.76c0-.11-8.17 1.45-8.54 1.85s.91 5.1 2.12 5.76 6.64-2.71 7.27-2.83-.85-4.78-.85-4.78z"/><path class="cls-13" d="M232.54 509.39c-.26-.22-7.78.62-7.78.62s0 7.45.33 7.39l7.39-1.53s1.99-4.87.06-6.48zM173.61 482.31l3.77 4.59-3.45 4-4.15-3.64s-.84-3.47.41-4.45 3.42-.5 3.42-.5z"/><path class="cls-21" d="M266.76 500.46c.21 0-5.63-.86-7.92.42s-2.32 5.45-2.32 5.45l-2.88 4.13 5.28 1.36s4.16-.63 5.49-3.61a48.12 48.12 0 0 0 2.35-7.75z"/><path class="cls-13" d="M248.12 506.51c-.48-.24-5.67-1.73-7-1.06s-2.92 5.12-2.92 5.12l2.42 4.39s7.23-.63 8-1 3.1-3.51 3.47-3.9-3.97-3.55-3.97-3.55zM240 493.94c.68 0 3.65 2.64 2.79 4a18.33 18.33 0 0 0-1.54 3.67l-5.87 1.48s.37-4.67.37-5.32 2.25-3.7 4.25-3.83zM244.36 521.09l4.23 2.21s-3.59 2.61-4.18 2.39-6.16-2-6.32-2.27 6.27-2.33 6.27-2.33zM96.7 470.48l4.23 2.21s-3.59 2.61-4.18 2.39-6.16-2-6.32-2.27 6.27-2.33 6.27-2.33z"/><path class="cls-21" d="M253.38 518.83l5.37 3.1s-3 1.18-3.5 1.28a20 20 0 0 1-5.34-2.33c-.06-.32-.75-3.59-.75-3.59zM79 455l3.1-5.37s1.18 3 1.27 3.5a20 20 0 0 1-2.34 5.34l-3.59.74zM271.7 515.9c-.34.06-6.32.8-7.72 2.8s-2.62 5-2.14 5.2a19.26 19.26 0 0 0 7.81.8c3-.53 6.34-6.82 6.34-6.82s.15-2.87-.73-3.48-2.39 1.29-3.56 1.5z"/><path class="cls-13" d="M271.05 505.5c1-.51 9.13-.42 9.58.27s-.48 3.48-.66 4.28a3.82 3.82 0 0 1-3 2.73c-1.82.21-6.64.85-6.64.85l-2.67-2.7zM263.36 517.05l-1.86-4.92-4.17-.03-.37 4.67 3.68 2.85 3.59-1.41-.87-1.16zM247.65 486c.17-.76-1-8.14-6.39-7.62s-8 3-8 3-2 4.53-1.78 6 6 1.57 7.51 2.83 8.01-1.47 8.66-4.21z"/><path class="cls-21" d="M228.74 481.92c-2-.08-3.13 5.81-4.64 7.18s-3.84 5.5-.22 6.17 11-2 11-2 6.54-5.11 5.75-5.84-11.89-5.51-11.89-5.51z"/><path class="cls-13" d="M225.74 489.68l2.9 8.9a14.57 14.57 0 0 1-8.45-4.41zM252.92 491l2.37 5.93s-4.14 3.8-5.57 3.18-3.27-7.3-3.27-7.3a6.16 6.16 0 0 1 6.47-1.81zM265.64 487.4l5.06 8.74s-4 4.65-7.78 5.55-5.22-7.18-5.22-7.18l1-7a52.67 52.67 0 0 1 6.94-.11zM287.23 493c.65 0 9.68 6.38 5.56 9.09a14 14 0 0 1-8.84 2l-2.06-6.64a6.1 6.1 0 0 1 5.34-4.45z"/><path class="cls-21" d="M277.78 491.6c.76.14 5.22 7.18 1.2 9.21a37.61 37.61 0 0 1-7 2.77s-5-3.49-4.22-6.48 6.4-6.17 10.02-5.5zM252.64 498c2.1-.37 3.84 4.35 2.76 5.64s-5.77 4.53-6.9 4.29-4.82-6.15-4.12-7.15 6.99-2.51 8.26-2.78z"/><path class="cls-13" d="M215.79 490.36l7.37 9.42-5.49 2.4-6.92-5.67 5.04-6.15z"/><path class="cls-21" d="M482.89 443.8s2.61-8.92 5.39-7 4.8 7.12 5.08 7.75-3.89 6.87-3.89 6.87-5.77-5.96-6.58-7.62z"/><path class="cls-13" d="M443.44 448.56s4.27-8.16 7.89-6.32 6.77 10.67 6.77 10.67l-5.1 3.91s-10.79-2.52-9.56-8.26z"/><path class="cls-21" d="M371.72 503c-.26-.88 1.12-4.72 1.12-4.72a29.85 29.85 0 0 1 7.72 1.43c3.15 1.21 5.3 1.36 3 3.9s-10.64 3.39-11.84-.61z"/><path class="cls-13" d="M406.25 481.81a13.35 13.35 0 0 1 2.36-4.78l3.78-3.5 6-.9.07 9.74s-4.59 4.48-7.3 3.15-5.44-.19-4.91-3.71zM480.74 459.8s-.09-8.45 1-10.21 4.79-6.06 10-6.26 5.33 6.26 5.33 6.26z"/><path class="cls-21" d="M410.45 492c-.19.66-7-.5-7.51-1s-7-6.78-4.59-9.26 6.41-1 6.41-1 6.56 8.26 5.69 11.26z"/><path class="cls-13" d="M388.9 479.63s-6.58 3.66-6.35 6 4.08 4.16 4.08 4.16l7.08-.68s2.46-3.7 2.06-5.61-6.87-3.87-6.87-3.87z"/><path class="cls-21" d="M429.31 479.85c2.68-.65 3.7-2.09 5.76-1s2.86 4.93 2.2 7.15-4.17 6.25-4.17 6.25-4.7.67-5.07-3.2-.21-8.84 1.28-9.2zM388.84 503l8.2-4.9 5.13 3.84s-5.4 4.64-9.61 3.74c-1.34-.3-3.72-2.68-3.72-2.68zM415.72 494.38l2.2-9.29 6.33-1s-.45 7.11-4 9.49c-1.17.76-4.53.8-4.53.8z"/><path class="cls-13" d="M520.2 392.83s4.2-8.2 7.84-6.39 7.44 7.52 6.87 10.61-3.75 3.83-5 3.95-9.71-8.17-9.71-8.17zM467.43 466.32s-.44-9.06 3.9-9 8.3 7.44 8.3 7.44l-9.75 6.79z"/><path class="cls-21" d="M421.47 475.15c2.64-1.88 8.6-2.09 8.6-2.09s6.17 1.21 4.51 3.74-6.66 6.21-6.66 6.21l-10.92-.23s1.08-5.21 4.47-7.63zM452.28 458.8c-.26-.88-1.12-3.21 1.12-4.72s4.57.21 7.72 1.43 5.3 1.36 3 3.9-10.64 3.45-11.84-.61z"/><path class="cls-13" d="M382.91 497.46l2.36-4.78 9.76-4.4 3.07 3.82-3 5.92s-4.59 4.48-7.3 3.15a18.83 18.83 0 0 1-4.89-3.71zM435.16 482.21s3.61-9.17 4.65-10 3.88-1.81 5.35 3.12.07 12.11-1.28 12-8.72-5.12-8.72-5.12z"/><path class="cls-21" d="M463.95 474c-.68.1-2.44-6.63-2.22-7.24s3.3-9.16 6.56-8 3.57 5.43 3.57 5.43-4.75 9.33-7.91 9.81z"/><path class="cls-13" d="M404.42 491.34s-4.78 5.82-3.71 7.93 4.16 2.42 5.32 2.38c3.09-.12 5.3-1.48 6.34-3.22a6 6 0 0 0-.14-6c-1.06-1.62-7.81-1.09-7.81-1.09zM420.36 484.67s2.75 7 5.12 7.11 4.14-2.45 4.67-3.49c1.4-2.75 1.29-5.34.28-7.11a6 6 0 0 0-5.29-2.8c-1.95.14-4.78 6.29-4.78 6.29z"/><path class="cls-21" d="M448.48 472.33s3.7-2.09 5.76-1 2.86 4.93 2.2 7.15-4.17 6.25-4.17 6.25-4.7.67-5.07-3.2 1.28-9.2 1.28-9.2zM493.74 436.08s3.7-2.09 5.76-1 2.86 4.93 2.2 7.15-4.17 6.25-4.17 6.25-4.7.67-5.07-3.2 1.28-9.2 1.28-9.2zM373 498.36s-4-1.55-4.4-3.84 2-5.32 4.16-6.23 7.48-.71 7.48-.71 3.49 3.23.72 6-7.96 4.78-7.96 4.78z"/><path class="cls-13" d="M364.79 477.35s5-4.81 8.2-4.9 5.34 1.44 5.13 3.84-9.08 6.94-9.08 6.94zM486.68 406s5-4.81 8.2-4.9 5.34 1.44 5.13 3.84-9.08 6.94-9.08 6.94zM453.89 468.42c0-3.47-.53-9 2.88-8.94s8.2 4 6.68 7.59-6 6.43-7.53 6.57-2.04-1.75-2.03-5.22z"/><path class="cls-21" d="M475 453.75c.88-3.12 5.39-7 5.39-7l5.86.09-1.3 9-7.27 3.3a4.34 4.34 0 0 1-2.68-5.39z"/><path class="cls-13" d="M378 508.27l4.36-11s2.79-.27 6.39 5.67-1.95 4.52-2.43 6.3-8.16.76-8.32-.97z"/><path class="cls-21" d="M479.26 422.48l9.61-3.74s6.08 9.17 4.31 11.07-8 .33-10.75.82a8.38 8.38 0 0 1-7.43-3c-1.26-1.81 4.26-5.15 4.26-5.15zM499.91 429.93c-1 3 .94 5.33 2.48 7.78s4.45-1.08 5.67-1.84 1-7.89-.56-10.35-6.74 1.94-7.59 4.41zM492.65 412c-1 3 .94 5.33 2.48 7.78s4.45-1.08 5.67-1.84 1-7.89-.56-10.35-6.75 1.95-7.59 4.41zM378 470.28c-1.85 1-3.31 6.17-3.31 6.17s1.18 5.52 3.26 6.84 6.83-7.81 6.83-7.81z"/><path class="cls-13" d="M475 438.65l.33 8s5.06.81 6.63-.85 1-7.68 1-7.68l-5.42-2.3zM481.42 398.78l.33 8s5.06.81 6.63-.85 1-7.68 1-7.68l-5.42-2.3z"/><path class="cls-21" d="M437.71 473l8.19-9.45 4.55 4.55s-.45 4.38-1 7.25-4.6 6.29-4.6 6.29l-7.67-3.16z"/><path class="cls-13" d="M360.65 504.76l-7.41-4.92s-.41-4.29-.07-5.19 3.58-3.38 3.58-3.38l7.42.59.23 11.46zM424 465.43c2.75-5.25 4.31-4.75 7.3-5.25s5.75 1.18 5.24 4.91 2.46 7.56.46 9.27l-6.64 5.64z"/><path class="cls-21" d="M532.63 378.31c1.06-2.49 4.22-8 6.65-5.19s-.12 7.81-.06 10.62-6.71 4.54-6.71 4.54zM359 508.79s-2.18-6.94.78-7.66 12.53-4.89 12.2-3.77-1.06 7-1.9 9.5-6.89 5-6.89 5-3.53-.53-4.19-3.07z"/><path class="cls-13" d="M481.59 413.85c.31-1 6-5.3 6.62-5.12s3.56 9.52 3.56 9.52l-7.21 6.24s-4.43-5.8-2.97-10.64zM491.13 429c-.23-1.51 4-10.56 6.12-10.77s8.55-3.42 9.13-2-3.49 8.78-4.08 11.66-4.07 9.49-5 9.14-5.57-4.03-6.17-8.03z"/><path class="cls-21" d="M506.39 427.09c-1.07-4.62 3.22-11.58 5.23-11.77s4.82 5 4.82 5-3.58 7.85-4.41 8.22-4.66 2.79-5.64-1.45z"/><path class="cls-13" d="M510.54 421.64c.63-1.26 5.64-3.36 5.64-3.36l2.76 2.77s3.77 3.21 0 6.5-6.45 3.87-6.45 3.87L508 429.8a74.31 74.31 0 0 1 2.54-8.16zM442.2 462.32s2.51-6.63 4.43-5.73 5.41 1.11 5.62 2.17-.69 5.27-1.69 7.2-3.95 2.87-3.95 2.87-2.18-3.47-3.58-3.45-1.52-1.26-.83-3.06zM501.19 402.85c1.3-1.75 2-4.85 2.76-5.14s3.44-1.41 3.77.94S510 404 510 404.39s-3.08 6.25-3.08 6.25l-6-3.54s-.59-3.1.27-4.25z"/><path class="cls-21" d="M522.58 404.7c1.31 2.37 2.22 3.9 1.48 5.27s-4.14 3.11-6.46 3.76-5.68 1.74-6.64.75a6.34 6.34 0 0 1-2.22-5.09c.05-2.82 3.19-5.18 3.88-4.71s8.65-2.35 9.96.02z"/><path class="cls-13" d="M503.38 411.2l2-5.5s5.24.47 6.17 2.22-1.19 5.64-1.19 5.64zM501.34 436.39l2-5.5s5.24.47 6.17 2.22-1.19 5.64-1.19 5.64zM461.81 452.06c-.28 1.89-.08 6 .79 6a46.62 46.62 0 0 0 5.47-.53c.42-.15 3.59-1 4.14-4.3s-1.64-4.72-1.75-5.79-7.72-1.53-8.65 4.62z"/><path class="cls-21" d="M511.88 396.06l-4-2.32s2.89-9.38 4.7-8.58 8.19 1.81 8.19 1.81 1.34 6 .84 7.61-7.27 2.32-9.73 1.48zM522.86 400.77s3.54-6 4.26-6.37 2.54 1.6 2.54 1.6-.27 7.39-.84 8.2-3.3 1.73-3.3 1.73zM518.07 413.23s5 .06 5 .49-.81 6.25-.81 6.25l-4.09 2.56s-.71-6.64-.1-9.3z"/><path class="cls-13" d="M462.33 434.81s6.55-7.35 7.78-4.75 0 6.06 0 6.06l-5.27 2.67a37 37 0 0 1-2.51-3.98z"/><path class="cls-21" d="M523.52 375.52c-.11 0 .79 8.27 1.16 8.66s5.15-.49 5.91-1.65-2.17-6.83-2.23-7.48-4.84.47-4.84.47z"/><path class="cls-13" d="M532 387.19c-.24.24 0 7.8 0 7.8s7.42.59 7.39.27-.94-7.49-.94-7.49-4.64-2.37-6.45-.58zM478.4 430.23l4.87-3.39 3.73 3.76-4 3.85s-3.52.55-4.41-.77-.19-3.45-.19-3.45z"/><path class="cls-21" d="M518.77 354c0-.21-1.31 5.54-.21 7.93s5.25 2.75 5.25 2.75l3.88 3.2 1.78-5.15s-.29-4.2-3.15-5.76a48.12 48.12 0 0 0-7.55-2.97z"/><path class="cls-13" d="M523.25 369.4c-.28.46-2.18 5.52-1.62 6.87s4.87 3.32 4.87 3.32l4.57-2.06s0-7.25-.34-8.09-3.25-3.37-3.61-3.77-3.87 3.73-3.87 3.73zM522.93 383.19c0-.68 2.92-3.42 4.21-2.46a18.33 18.33 0 0 0 3.53 1.83l1 6s-4.62-.75-5.28-.79-3.49-2.62-3.46-4.58zM532.12 375.76l2.54-4s2.31 3.79 2 4.35-2.46 6-2.77 6.12-1.77-6.47-1.77-6.47zM505.43 392.17l2.54-4s2.31 3.79 2 4.35-2.46 6-2.77 6.12-1.77-6.47-1.77-6.47z"/><path class="cls-21" d="M528.33 368.46l3.52-5.1s.94 3.05 1 3.59a20 20 0 0 1-2.76 5.14l-3.64.46zM457.75 437l-5.1-3.53s3.05-.94 3.59-1a20 20 0 0 1 5.14 2.76c0 .32.45 3.64.45 3.64zM347.28 488.32l-5.1-3.53s3.05-.94 3.59-1a20 20 0 0 1 5.14 2.76c0 .32.45 3.64.45 3.64zM531.69 359.69c0 .34.29 6.36 2.17 7.92s4.73 3 5 2.55a19.26 19.26 0 0 0 1.43-7.72c-.29-3-6.29-6.87-6.29-6.87s-2.85-.38-3.53.45 1.11 2.49 1.22 3.67z"/><path class="cls-13" d="M522.2 351.39c0-1.13 3.69-8.36 4.5-8.46s2.9 2 3.54 2.5a3.82 3.82 0 0 1 1.1 3.92c-.62 1.73-2.19 6.32-2.19 6.32l-3.61 1.19zM520.86 361.56l-5.07 1.45-.36 4.16 4.63.74 3.13-3.44-1.11-3.68-1.22.77zM360.99 463.14l6.28 7.35-4.76 3.62-4.17-5.39 2.65-5.58zM347 497.75c-4.84.72-6.32 5.51-7.11 6.81s5.33 2.85 9.45 1.39 2.66-8.95-2.34-8.2zM329.65 502c1.56-.49 4.95-5.85 4.19-8.48s-2.16-3.12-5.68-3.22-6.84 1.8-9.23 1.5-.64 8.73-.64 8.73 8.18 2.47 11.36 1.47zM325.4 510.94c-3.64.65-13 4.07-13 4.07l4.55 5 8.25-4.53s.91-4.66.2-4.54zM296.21 520.08c.44-.11 7.41-14.17 5.51-15s-7.17-.91-7.17-.91l-7.19 8.83 2.47 7.3a26.56 26.56 0 0 0 6.38-.22zM308.66 508.81l-6.43 2.46s-1.6 7.44 1.78 7.57 6.52-4.37 6.4-5.08-1.41-4.13-1.75-4.95zM309.76 498.54c-2.21-1.05-1.78-5.09-4.47-4.61a16.71 16.71 0 0 0-5.06 1.92s2.55 10.21 5.8 9.63 4.84-6.41 3.73-6.94zM333.78 503.9c-1.63-.76-6.08-.52-7.59 0s-.05 3.81-.05 3.81 1.24 5.33 5.6 4.41 3.63-7.48 2.04-8.22zM342.39 491.56s.08 7-1.62 7.3a18.27 18.27 0 0 1-5.21-.53l1.13-9.25z"/><path class="cls-21" d="M341.84 508.16s-4.72-3.54-5.49-3-6.2 3.73-5 4.55 6.1 6.36 6.1 6.36l5.86-2.36s.69-4.32-1.47-5.55zM321.12 502.5c-1.57-2.66-3.55-4.33-6.09-3.88s-5.92 3.68-5.92 3.68 1 4.93 1.26 7.08 5.17 2 5.17 2l6.08-3.56s.13-4.26-.5-5.32zM321 487c.92 1.88 2.15 6.34 1.33 6.63s-6.56-.73-6.56-.73l-3.19-6.44zM302.78 496.27c.28-.33-2.76-5.64-2.76-5.64l-4.44 2.11 2.12 6.19s1.95 1.07 5.08-2.66zM295.48 509.4c-2.66-2.1-8.6-4-8.6-4l-5.21 5.16s-1.16 4.15 3.29 4.53a13.19 13.19 0 0 0 8.18-2.48s3.7-2.13 2.34-3.21zM286.6 517c-2.83.5-6.81 4.42-6.81 4.42v3.95s6.59-2.34 9.12-2.94 3.85-4.63 2.21-5.65-4.52.22-4.52.22zM365.77 489.16c-1.47-1.29-3.75-1.38-5.33 1.24s-4.38 4.14 0 4.37 4.47.52 7-1-.29-3.4-1.67-4.61zM361.85 475.17c-1.47-1.29-3.75-1.38-5.33 1.24s-4.38 4.14 0 4.37 4.47.52 7-1-.29-3.39-1.67-4.61z"/><path class="cls-13" d="M366.06 485.89c-1.94-3.28-.26-4.77-4.73-2.81s-4.53.81-4.07 4.23a7.33 7.33 0 0 0 3.53 5.07s5.9-5.43 5.27-6.49zM365.22 504.15c-6.6-4.61-10.93 3.41-10.93 5.89s4.49 3.87 4.49 3.87l9-2.91s-.55-5.45-2.56-6.85z"/><path class="cls-21" d="M348.06 507.79l4.4 5.06s-3.25 3.06-4.24 3.24-6.7-3.19-6.7-3.19z"/><path class="cls-13" d="M412.81 463s-4.84-3.37-5.31-3.58-3.66 2.4-2.58 4.4 5.69 5.71 5.69 5.71l4.75-2zM396.74 474.45a51.46 51.46 0 0 0-2.16 5.93l8.41-.33s4.84-2.32 4.17-3.66-4.53-3.28-4.53-3.28-4.71-1.11-5.89 1.34z"/><path class="cls-21" d="M419.32 457.72c.82-.58 5.68.74 6.69 2.31s3.22 5 1.42 6.32-6.43 4.07-6.43 4.07l-4.79-4s.3-4.87.34-5.46.31-1.48 2.77-3.24zM441.16 450.77c-.32-1-4.65-4-4.65-4s-3.12 2.16-2.94 3.15 3.31 6.28 3.31 6.28-1.82 6.17 1.24 5.33 5.82-4.25 5.82-4.25zM473.22 438.93l-7.87 2.57-.88 5.71s3.41 2.75 5.68 2.35 7.11-5.21 7.11-5.21-1.41-5.45-4.04-5.42z"/><path class="cls-13" d="M459.76 439.58c.46.62 3.39 3.48 2.76 4s-3.11 3-4.65 2.58-4.35-4.77-4.73-6.9 5.46-1.26 6.62.32zM426.91 445.79c.1-.67-9.49.81-9.49.81l1 6.62 5.78 2.92 2.89-4.68z"/><path class="cls-21" d="M418.38 441c1.91.4-4.67-5.3-6.25-4.36s-1.22 5.47-1.22 5.47l3.65 3.29s2.68-4.69 3.82-4.4z"/><path class="cls-13" d="M408.87 446.59l-6.61-1.45s-3.86 6.6-.57 6.67 9.8.89 9.8.89z"/><path class="cls-21" d="M428.89 442.15l-1.33-5a3.47 3.47 0 0 0-4.48 1.89c-1.42 3.1-1.5 5.09-.54 5.57s5.25-2.49 6.35-2.46zM436.29 438.2c1 .35 5 2 5 2s3.61 3.08 2.57 4.58 0 1.31-5.08 2.22-7.54-1.73-7.54-1.73l.42-3.8s2.53-3.99 4.63-3.27zM403.72 455.83l-5.12-1.72s-2 5-.47 6 3.45 4.64 5.43 3.42.35-6.64.16-7.7zM415 452.51a36.56 36.56 0 0 0 .92 6.41c.66 2.07-5 5.05-5 4.17s-3-12-3-12zM403.78 467.21c.48 1.45-3.19 6.7-3.19 6.7s-11.34-5.87-11.45-6.51 5-4 5-4z"/><path class="cls-13" d="M393.66 475.58c.27-.92-1.2-9.21-1.2-9.21s-4.17-5-4.28-5.59-2.57 5.28-2.09 6.72-1.48 10.12-.6 10.18 8.17-2.1 8.17-2.1z"/><path class="cls-21" d="M382.44 467.94s-2.68-5.22-3.39-5.53-1.75 4.91-1.75 4.91l3.55 10.1 8.29-3.88zM383.6 457.22L378 460s.23-4.86.87-5 4.73 2.22 4.73 2.22zM427.36 448.33l4.9 10.3-8.7-4.58 3.8-5.72z"/><path class="cls-3" d="M251.71 540.85c-7.23.41-18.92-1.31-18.92-1.31s2.88 21.1 3 29.85 5 202.23 5 202.23l8.42 1.77s1.73-225.39 2.5-232.54zM255.65 546.57c.48 1.08.8 224 1.31 226.82s6.21 0 6.21 0l-1.55-226.13z"/><path class="cls-2" d="M8.44 401.31c-1.1-5.33-.61-11.14 2.63-18.37a30.59 30.59 0 0 1 3.77-6.85c.6-7-.31-11.31-5.72.77-4.5 10.06-3.69 17.37-.68 24.45zm7.15-6.26c1.28 11.79 14.89 20.09 31.72 32 22.77 16.05 142.48 44.46 188.51 47.14s131.89-15.11 177.51-28.66 107.94-58.92 118.74-79.66c6-11.46 10.11-18.2 12.64-15.71-.71-9.95-6.71-10.06-15.2 6.23-10.8 20.73-73.12 66.1-118.74 79.66s-131.47 31.31-177.5 28.63-165.74-31.09-188.51-47.14c-13.63-9.61-24.76-14.66-29.17-22.49z"/></g></g></svg>